{"glyphs":{"0":{"ha":1169,"x_min":0,"x_max":0,"o":"m 98 442 b 579 -40 98 113 325 -40 b 1072 446 835 -40 1072 108 b 588 935 1072 785 835 935 b 98 442 346 935 98 794 z m 297 444 b 585 774 297 663 428 774 b 873 444 742 774 873 663 b 584 119 873 231 743 119 b 297 444 426 119 297 231 z "},"1":{"ha":640,"x_min":0,"x_max":0,"o":"m 291 730 l 291 0 l 481 0 l 481 897 l 344 897 l 69 838 l 90 701 z "},"2":{"ha":992,"x_min":0,"x_max":0,"o":"m 91 172 l 91 0 l 922 0 l 922 156 l 281 156 l 281 185 b 413 311 281 228 300 269 l 653 397 b 911 665 834 461 911 522 b 541 935 911 855 764 935 b 122 861 346 935 214 892 l 165 702 b 543 772 263 737 398 772 b 715 665 656 772 715 740 b 552 528 715 618 692 578 l 365 461 b 91 172 160 388 91 294 z "},"3":{"ha":985,"x_min":0,"x_max":0,"o":"m 460 -40 b 907 263 728 -40 907 32 b 726 496 907 378 838 470 b 865 681 822 531 865 600 b 506 935 865 890 679 935 b 100 858 331 935 174 885 l 143 708 b 496 772 240 740 384 772 b 669 673 621 772 669 728 b 466 549 669 612 628 549 l 276 549 l 276 393 l 516 393 b 710 257 590 393 710 388 b 476 122 710 175 647 122 b 110 190 315 122 194 158 l 58 33 b 460 -40 152 -10 326 -40 z "},"4":{"ha":977,"x_min":0,"x_max":0,"o":"m 609 174 l 609 0 l 792 0 l 792 174 l 949 174 l 949 313 l 792 313 l 792 897 l 556 897 l 51 353 l 51 174 z m 213 313 l 609 731 l 609 313 z "},"5":{"ha":974,"x_min":0,"x_max":0,"o":"m 465 -40 b 882 270 732 -40 882 49 b 525 574 882 520 685 574 b 322 542 430 574 360 553 l 332 741 l 781 741 l 781 897 l 162 897 l 135 460 l 230 369 b 506 414 313 397 396 414 b 685 268 628 414 685 360 b 465 122 685 174 624 122 b 141 190 349 122 224 157 l 92 34 b 465 -40 206 -20 351 -40 z "},"6":{"ha":1038,"x_min":0,"x_max":0,"o":"m 556 -40 b 964 286 873 -40 964 153 b 597 601 964 530 765 601 b 290 524 459 601 366 567 b 583 772 311 657 409 772 b 875 714 690 772 773 749 l 929 869 b 588 935 835 903 729 935 b 98 448 287 935 98 740 b 556 -40 98 109 292 -40 z m 293 368 b 580 438 377 410 462 438 b 767 283 669 438 767 399 b 560 122 767 173 677 122 b 293 368 435 122 323 188 z "},"7":{"ha":842,"x_min":0,"x_max":0,"o":"m 140 53 l 298 -40 l 797 750 l 797 897 l 33 897 l 33 742 l 594 742 z "},"8":{"ha":1063,"x_min":0,"x_max":0,"o":"m 103 225 b 546 -40 103 24 301 -40 b 988 225 781 -40 988 35 b 780 467 988 335 909 427 b 943 663 877 497 943 567 b 546 935 943 838 785 935 b 149 663 307 935 149 838 b 314 459 149 569 211 492 b 103 225 181 418 103 334 z m 300 235 b 546 383 300 331 401 383 b 792 235 691 383 792 331 b 546 108 792 152 683 108 b 300 235 407 108 300 151 z m 345 662 b 546 786 345 740 420 786 b 747 662 670 786 747 740 b 546 526 747 578 650 526 b 345 662 443 526 345 578 z "},"9":{"ha":1045,"x_min":0,"x_max":0,"o":"m 449 -40 b 947 463 790 -40 947 151 b 498 935 947 791 763 935 b 86 588 219 935 86 767 b 437 283 86 364 247 283 b 756 393 553 283 658 316 b 456 122 745 227 633 122 b 151 178 333 122 224 150 l 100 18 b 449 -40 163 -8 284 -40 z m 283 591 b 498 772 283 719 387 772 b 752 542 625 772 733 705 b 464 446 678 492 569 446 b 283 591 358 446 283 487 z "}," ":{"ha":344,"x_min":0,"x_max":0,"o":""},"A":{"ha":1164,"x_min":0,"x_max":0,"o":"m 29 42 l 193 -37 l 321 218 l 837 218 l 963 -37 l 1135 46 l 708 897 l 465 897 z m 394 365 l 582 739 l 765 365 z "},"À":{"ha":1164,"x_min":0,"x_max":0,"o":"m 29 42 l 193 -37 l 321 218 l 837 218 l 963 -37 l 1135 46 l 708 897 l 465 897 z m 299 1138 l 605 982 l 678 1102 l 376 1272 z m 394 365 l 582 739 l 765 365 z "},"Á":{"ha":1164,"x_min":0,"x_max":0,"o":"m 29 42 l 193 -37 l 321 218 l 837 218 l 963 -37 l 1135 46 l 708 897 l 465 897 z m 394 365 l 582 739 l 765 365 z m 488 1102 l 561 982 l 867 1138 l 790 1272 z "},"Â":{"ha":1164,"x_min":0,"x_max":0,"o":"m 29 42 l 193 -37 l 321 218 l 837 218 l 963 -37 l 1135 46 l 708 897 l 465 897 z m 335 1085 l 440 983 l 582 1113 l 725 983 l 831 1087 l 647 1232 l 519 1232 z m 394 365 l 582 739 l 765 365 z "},"Ã":{"ha":1164,"x_min":0,"x_max":0,"o":"m 29 42 l 193 -37 l 321 218 l 837 218 l 963 -37 l 1135 46 l 708 897 l 465 897 z m 292 1048 l 410 999 b 481 1076 433 1054 448 1076 b 574 1029 508 1076 533 1051 b 697 1001 603 1014 642 1001 b 888 1184 771 1001 851 1030 l 763 1222 b 699 1143 743 1160 725 1143 b 601 1175 660 1143 630 1158 b 480 1221 565 1197 530 1221 b 292 1048 392 1221 326 1174 z m 394 365 l 582 739 l 765 365 z "},"Ä":{"ha":1164,"x_min":0,"x_max":0,"o":"m 29 42 l 193 -37 l 321 218 l 837 218 l 963 -37 l 1135 46 l 708 897 l 465 897 z m 325 1006 l 524 1006 l 524 1188 l 325 1188 z m 394 365 l 582 739 l 765 365 z m 649 1006 l 848 1006 l 848 1188 l 649 1188 z "},"Å":{"ha":1164,"x_min":0,"x_max":0,"o":"m 29 42 l 193 -37 l 321 218 l 837 218 l 963 -37 l 1135 46 l 708 897 l 465 897 z m 383 1131 b 589 956 383 1031 458 956 b 795 1131 713 956 795 1031 b 589 1304 795 1231 711 1304 b 383 1131 466 1304 383 1231 z m 394 365 l 582 739 l 765 365 z m 516 1131 b 589 1198 516 1171 543 1198 b 661 1131 635 1198 661 1171 b 589 1063 661 1090 632 1063 b 516 1131 543 1063 516 1090 z "},"Ā":{"ha":1164,"x_min":0,"x_max":0,"o":"m 29 42 l 193 -37 l 321 218 l 837 218 l 963 -37 l 1135 46 l 708 897 l 465 897 z m 341 1028 l 834 1028 l 834 1169 l 341 1169 z m 394 365 l 582 739 l 765 365 z "},"Ă":{"ha":1164,"x_min":0,"x_max":0,"o":"m 29 42 l 193 -37 l 321 218 l 837 218 l 963 -37 l 1135 46 l 708 897 l 465 897 z m 332 1194 b 587 981 343 1061 438 981 b 842 1194 735 981 828 1062 l 690 1217 b 587 1112 676 1122 623 1112 b 484 1217 551 1112 497 1122 z m 394 365 l 582 739 l 765 365 z "},"Ą":{"ha":1175,"x_min":0,"x_max":0,"o":"m 944 -290 b 1147 -255 1023 -290 1115 -266 l 1110 -133 b 965 -160 1052 -150 1002 -160 b 915 -120 936 -160 915 -151 b 1158 24 915 -87 962 -37 l 715 897 l 488 897 l 49 56 l 207 -24 l 331 218 l 849 218 l 924 69 b 752 -131 820 15 752 -46 b 944 -290 752 -234 829 -290 z m 406 365 l 593 731 l 776 365 z "},"Ǻ":{"ha":1164,"x_min":0,"x_max":0,"o":"m 29 42 l 193 -37 l 321 218 l 837 218 l 963 -37 l 1135 46 l 708 897 l 465 897 z m 380 1399 l 453 1279 l 759 1435 l 682 1569 z m 381 1103 b 587 928 381 1003 456 928 b 793 1103 711 928 793 1003 b 587 1276 793 1203 709 1276 b 381 1103 464 1276 381 1203 z m 394 365 l 582 739 l 765 365 z m 514 1103 b 587 1170 514 1143 541 1170 b 659 1103 633 1170 659 1143 b 587 1035 659 1063 630 1035 b 514 1103 541 1035 514 1063 z "},"B":{"ha":1165,"x_min":0,"x_max":0,"o":"m 694 897 l 149 897 l 149 -1 l 694 -1 b 1066 257 922 -1 1066 64 b 868 490 1066 397 987 465 b 1025 666 982 520 1025 592 b 694 897 1025 823 925 897 z m 345 159 l 345 387 l 676 387 b 863 262 821 387 863 328 b 685 159 863 190 796 159 z m 345 544 l 345 737 l 671 737 b 824 640 789 737 824 694 b 653 544 824 581 789 544 z "},"C":{"ha":1140,"x_min":0,"x_max":0,"o":"m 98 440 b 628 -40 98 139 286 -40 b 1062 76 804 -40 951 10 l 984 237 b 635 129 884 177 783 129 b 301 443 419 129 301 253 b 642 765 301 635 426 765 b 965 678 765 765 862 724 l 1033 847 b 651 935 955 885 826 935 b 98 440 339 935 98 768 z "},"Ç":{"ha":1140,"x_min":0,"x_max":0,"o":"m 98 440 b 540 -36 98 165 254 -8 b 647 -121 624 -71 647 -99 b 581 -162 647 -151 616 -162 b 449 -135 549 -162 501 -152 l 412 -255 b 601 -290 448 -268 521 -290 b 807 -131 724 -290 807 -234 b 769 -29 807 -94 795 -60 b 1062 76 884 -10 982 28 l 984 237 b 635 129 884 177 783 129 b 301 443 419 129 301 253 b 642 765 301 635 426 765 b 965 678 765 765 862 724 l 1033 847 b 651 935 955 885 826 935 b 98 440 339 935 98 768 z "},"Ć":{"ha":1140,"x_min":0,"x_max":0,"o":"m 98 440 b 628 -40 98 139 286 -40 b 1062 76 804 -40 951 10 l 984 237 b 635 129 884 177 783 129 b 301 443 419 129 301 253 b 642 765 301 635 426 765 b 965 678 765 765 862 724 l 1033 847 b 651 935 955 885 826 935 b 98 440 339 935 98 768 z m 506 1104 l 580 984 l 885 1140 l 808 1274 z "},"Ĉ":{"ha":1140,"x_min":0,"x_max":0,"o":"m 98 440 b 628 -40 98 139 286 -40 b 1062 76 804 -40 951 10 l 984 237 b 635 129 884 177 783 129 b 301 443 419 129 301 253 b 642 765 301 635 426 765 b 965 678 765 765 862 724 l 1033 847 b 651 935 955 885 826 935 b 98 440 339 935 98 768 z m 385 1085 l 490 983 l 631 1113 l 774 983 l 880 1087 l 697 1232 l 569 1232 z "},"Ċ":{"ha":1140,"x_min":0,"x_max":0,"o":"m 98 440 b 628 -40 98 139 286 -40 b 1062 76 804 -40 951 10 l 984 237 b 635 129 884 177 783 129 b 301 443 419 129 301 253 b 642 765 301 635 426 765 b 965 678 765 765 862 724 l 1033 847 b 651 935 955 885 826 935 b 98 440 339 935 98 768 z m 531 1006 l 729 1006 l 729 1188 l 531 1188 z "},"Č":{"ha":1140,"x_min":0,"x_max":0,"o":"m 98 440 b 628 -40 98 139 286 -40 b 1062 76 804 -40 951 10 l 984 237 b 635 129 884 177 783 129 b 301 443 419 129 301 253 b 642 765 301 635 426 765 b 965 678 765 765 862 724 l 1033 847 b 651 935 955 885 826 935 b 98 440 339 935 98 768 z m 384 1163 l 567 1017 l 695 1017 l 879 1164 l 774 1267 l 633 1137 l 490 1267 z "},"D":{"ha":1220,"x_min":0,"x_max":0,"o":"m 571 897 l 149 897 l 149 0 l 566 0 b 1122 440 935 0 1122 119 b 571 897 1122 747 954 897 z m 345 162 l 345 735 l 579 735 b 919 441 833 735 919 622 b 587 162 919 276 840 162 z "},"Ď":{"ha":1220,"x_min":0,"x_max":0,"o":"m 571 897 l 149 897 l 149 0 l 566 0 b 1122 440 935 0 1122 119 b 571 897 1122 747 954 897 z m 341 1163 l 524 1017 l 652 1017 l 836 1164 l 731 1267 l 590 1137 l 447 1267 z m 345 162 l 345 735 l 579 735 b 919 441 833 735 919 622 b 587 162 919 276 840 162 z "},"E":{"ha":1062,"x_min":0,"x_max":0,"o":"m 149 897 l 149 0 l 990 0 l 990 160 l 345 160 l 345 377 l 884 377 l 884 535 l 345 535 l 345 737 l 974 737 l 974 897 z "},"È":{"ha":1062,"x_min":0,"x_max":0,"o":"m 149 897 l 149 0 l 990 0 l 990 160 l 345 160 l 345 377 l 884 377 l 884 535 l 345 535 l 345 737 l 974 737 l 974 897 z m 334 1138 l 640 982 l 713 1102 l 411 1272 z "},"É":{"ha":1062,"x_min":0,"x_max":0,"o":"m 149 897 l 149 0 l 990 0 l 990 160 l 345 160 l 345 377 l 884 377 l 884 535 l 345 535 l 345 737 l 974 737 l 974 897 z m 417 1102 l 490 982 l 796 1138 l 719 1272 z "},"Ê":{"ha":1062,"x_min":0,"x_max":0,"o":"m 149 897 l 149 0 l 990 0 l 990 160 l 345 160 l 345 377 l 884 377 l 884 535 l 345 535 l 345 737 l 974 737 l 974 897 z m 329 1085 l 434 983 l 576 1113 l 719 983 l 824 1087 l 641 1232 l 513 1232 z "},"Ë":{"ha":1062,"x_min":0,"x_max":0,"o":"m 149 897 l 149 0 l 990 0 l 990 160 l 345 160 l 345 377 l 884 377 l 884 535 l 345 535 l 345 737 l 974 737 l 974 897 z m 325 1006 l 524 1006 l 524 1188 l 325 1188 z m 649 1006 l 848 1006 l 848 1188 l 649 1188 z "},"Ē":{"ha":1062,"x_min":0,"x_max":0,"o":"m 149 897 l 149 0 l 990 0 l 990 160 l 345 160 l 345 377 l 884 377 l 884 535 l 345 535 l 345 737 l 974 737 l 974 897 z m 341 1028 l 834 1028 l 834 1169 l 341 1169 z "},"Ĕ":{"ha":1062,"x_min":0,"x_max":0,"o":"m 149 897 l 149 0 l 990 0 l 990 160 l 345 160 l 345 377 l 884 377 l 884 535 l 345 535 l 345 737 l 974 737 l 974 897 z m 326 1194 b 581 981 338 1061 433 981 b 836 1194 730 981 822 1062 l 684 1217 b 581 1112 671 1122 617 1112 b 478 1217 545 1112 492 1122 z "},"Ė":{"ha":1062,"x_min":0,"x_max":0,"o":"m 149 897 l 149 0 l 990 0 l 990 160 l 345 160 l 345 377 l 884 377 l 884 535 l 345 535 l 345 737 l 974 737 l 974 897 z m 488 1006 l 687 1006 l 687 1188 l 488 1188 z "},"Ę":{"ha":1062,"x_min":0,"x_max":0,"o":"m 819 -290 b 1006 -255 892 -290 976 -266 l 972 -133 b 840 -160 919 -150 873 -160 b 790 -120 813 -160 790 -151 b 990 0 790 -91 828 -52 l 990 160 l 345 160 l 345 377 l 884 377 l 884 535 l 345 535 l 345 737 l 974 737 l 974 897 l 149 897 l 149 0 l 713 0 b 627 -131 656 -37 627 -79 b 819 -290 627 -235 704 -290 z "},"Ě":{"ha":1062,"x_min":0,"x_max":0,"o":"m 149 897 l 149 0 l 990 0 l 990 160 l 345 160 l 345 377 l 884 377 l 884 535 l 345 535 l 345 737 l 974 737 l 974 897 z m 338 1163 l 522 1017 l 649 1017 l 833 1164 l 728 1267 l 587 1137 l 444 1267 z "},"F":{"ha":1000,"x_min":0,"x_max":0,"o":"m 149 897 l 149 0 l 345 0 l 345 334 l 840 334 l 840 492 l 345 492 l 345 737 l 948 737 l 948 897 z "},"G":{"ha":1193,"x_min":0,"x_max":0,"o":"m 98 444 b 630 -40 98 118 318 -40 b 1075 63 833 -40 983 21 l 1075 501 l 579 501 l 579 339 l 878 339 l 878 177 b 635 129 818 153 753 129 b 301 443 433 129 301 227 b 650 765 301 656 442 765 b 992 683 733 765 846 745 l 1053 847 b 650 935 934 900 797 935 b 98 444 364 935 98 788 z "},"Ĝ":{"ha":1193,"x_min":0,"x_max":0,"o":"m 98 444 b 630 -40 98 118 318 -40 b 1075 63 833 -40 983 21 l 1075 501 l 579 501 l 579 339 l 878 339 l 878 177 b 635 129 818 153 753 129 b 301 443 433 129 301 227 b 650 765 301 656 442 765 b 992 683 733 765 846 745 l 1053 847 b 650 935 934 900 797 935 b 98 444 364 935 98 788 z m 397 1085 l 502 983 l 644 1113 l 787 983 l 892 1087 l 709 1232 l 581 1232 z "},"Ğ":{"ha":1193,"x_min":0,"x_max":0,"o":"m 98 444 b 630 -40 98 118 318 -40 b 1075 63 833 -40 983 21 l 1075 501 l 579 501 l 579 339 l 878 339 l 878 177 b 635 129 818 153 753 129 b 301 443 433 129 301 227 b 650 765 301 656 442 765 b 992 683 733 765 846 745 l 1053 847 b 650 935 934 900 797 935 b 98 444 364 935 98 788 z m 378 1194 b 633 981 390 1061 485 981 b 888 1194 782 981 874 1062 l 736 1217 b 633 1112 723 1122 669 1112 b 531 1217 597 1112 544 1122 z "},"Ġ":{"ha":1193,"x_min":0,"x_max":0,"o":"m 98 444 b 630 -40 98 118 318 -40 b 1075 63 833 -40 983 21 l 1075 501 l 579 501 l 579 339 l 878 339 l 878 177 b 635 129 818 153 753 129 b 301 443 433 129 301 227 b 650 765 301 656 442 765 b 992 683 733 765 846 745 l 1053 847 b 650 935 934 900 797 935 b 98 444 364 935 98 788 z m 533 1006 l 732 1006 l 732 1188 l 533 1188 z "},"Ģ":{"ha":1193,"x_min":0,"x_max":0,"o":"m 98 444 b 630 -40 98 118 318 -40 b 1075 63 833 -40 983 21 l 1075 501 l 579 501 l 579 339 l 878 339 l 878 177 b 635 129 818 153 753 129 b 301 443 433 129 301 227 b 650 765 301 656 442 765 b 992 683 733 765 846 745 l 1053 847 b 650 935 934 900 797 935 b 98 444 364 935 98 788 z m 533 -262 l 599 -262 l 535 -395 l 616 -437 l 735 -267 l 735 -102 l 533 -102 z "},"H":{"ha":1297,"x_min":0,"x_max":0,"o":"m 149 897 l 149 0 l 345 0 l 345 365 l 952 365 l 952 0 l 1149 0 l 1149 897 l 952 897 l 952 526 l 345 526 l 345 897 z "},"Ĥ":{"ha":1297,"x_min":0,"x_max":0,"o":"m 149 897 l 149 0 l 345 0 l 345 365 l 952 365 l 952 0 l 1149 0 l 1149 897 l 952 897 l 952 526 l 345 526 l 345 897 z m 421 1085 l 526 983 l 667 1113 l 810 983 l 916 1087 l 733 1232 l 605 1232 z "},"I":{"ha":494,"x_min":0,"x_max":0,"o":"m 149 897 l 149 0 l 345 0 l 345 897 z "},"Ì":{"ha":494,"x_min":0,"x_max":0,"o":"m 149 897 l 149 0 l 345 0 l 345 897 z m -43 1138 l 263 982 l 336 1102 l 34 1272 z "},"Í":{"ha":494,"x_min":0,"x_max":0,"o":"m 149 897 l 149 0 l 345 0 l 345 897 z m 131 1102 l 204 982 l 510 1138 l 433 1272 z "},"Î":{"ha":494,"x_min":0,"x_max":0,"o":"m 149 897 l 149 0 l 345 0 l 345 897 z m -7 1085 l 98 983 l 240 1113 l 383 983 l 488 1087 l 305 1232 l 177 1232 z "},"Ï":{"ha":494,"x_min":0,"x_max":0,"o":"m 149 897 l 149 0 l 345 0 l 345 897 z m -15 1006 l 184 1006 l 184 1188 l -15 1188 z m 310 1006 l 508 1006 l 508 1188 l 310 1188 z "},"Ĩ":{"ha":494,"x_min":0,"x_max":0,"o":"m 149 897 l 149 0 l 345 0 l 345 897 z m -52 1048 l 66 999 b 137 1076 88 1054 103 1076 b 229 1029 163 1076 188 1051 b 353 1001 259 1014 298 1001 b 543 1184 426 1001 506 1030 l 419 1222 b 355 1143 399 1160 381 1143 b 257 1175 315 1143 285 1158 b 135 1221 220 1197 185 1221 b -52 1048 47 1221 -18 1174 z "},"Ī":{"ha":494,"x_min":0,"x_max":0,"o":"m 149 897 l 149 0 l 345 0 l 345 897 z m 1 1028 l 494 1028 l 494 1169 l 1 1169 z "},"Ĭ":{"ha":494,"x_min":0,"x_max":0,"o":"m 149 897 l 149 0 l 345 0 l 345 897 z m -8 1194 b 247 981 3 1061 99 981 b 502 1194 396 981 488 1062 l 350 1217 b 247 1112 337 1122 283 1112 b 144 1217 211 1112 158 1122 z "},"Į":{"ha":483,"x_min":0,"x_max":0,"o":"m 237 -290 b 438 -255 310 -290 406 -266 l 401 -133 b 255 -160 343 -150 292 -160 b 206 -117 225 -160 206 -144 b 335 0 206 -87 219 -49 l 335 897 l 138 897 l 138 13 b 43 -147 73 -26 43 -76 b 237 -290 43 -235 113 -290 z "},"İ":{"ha":494,"x_min":0,"x_max":0,"o":"m 149 897 l 149 0 l 345 0 l 345 897 z m 149 1006 l 347 1006 l 347 1188 l 149 1188 z "},"J":{"ha":940,"x_min":0,"x_max":0,"o":"m 99 222 l 23 69 b 392 -40 97 15 230 -40 b 811 332 586 -40 811 17 l 811 897 l 615 897 l 615 336 b 395 128 615 168 511 128 b 99 222 273 128 177 171 z "},"Ĵ":{"ha":940,"x_min":0,"x_max":0,"o":"m 99 222 l 23 69 b 392 -40 97 15 230 -40 b 811 332 586 -40 811 17 l 811 897 l 615 897 l 615 336 b 395 128 615 168 511 128 b 99 222 273 128 177 171 z m 462 1085 l 567 983 l 708 1113 l 851 983 l 957 1087 l 774 1232 l 646 1232 z "},"K":{"ha":1190,"x_min":0,"x_max":0,"o":"m 633 413 l 994 -37 l 1144 81 l 776 533 l 1093 799 l 977 930 l 345 394 l 345 897 l 149 897 l 149 0 l 345 0 l 345 170 z "},"Ķ":{"ha":1190,"x_min":0,"x_max":0,"o":"m 633 413 l 994 -37 l 1144 81 l 776 533 l 1093 799 l 977 930 l 345 394 l 345 897 l 149 897 l 149 0 l 345 0 l 345 170 z m 510 -262 l 576 -262 l 513 -395 l 593 -437 l 712 -267 l 712 -102 l 510 -102 z "},"L":{"ha":960,"x_min":0,"x_max":0,"o":"m 149 897 l 149 0 l 944 0 l 944 164 l 345 164 l 345 897 z "},"Ĺ":{"ha":960,"x_min":0,"x_max":0,"o":"m 149 897 l 149 0 l 944 0 l 944 164 l 345 164 l 345 897 z m 133 1102 l 206 982 l 512 1138 l 435 1272 z "},"Ļ":{"ha":960,"x_min":0,"x_max":0,"o":"m 149 897 l 149 0 l 944 0 l 944 164 l 345 164 l 345 897 z m 437 -262 l 503 -262 l 440 -395 l 520 -437 l 639 -267 l 639 -102 l 437 -102 z "},"Ľ":{"ha":960,"x_min":0,"x_max":0,"o":"m 149 897 l 149 0 l 944 0 l 944 164 l 345 164 l 345 897 z m 573 583 l 742 560 l 801 890 l 610 915 z "},"M":{"ha":1442,"x_min":0,"x_max":0,"o":"m 149 897 l 149 0 l 335 0 l 335 697 l 599 115 l 846 115 l 1107 717 l 1107 0 l 1293 0 l 1293 897 l 990 897 l 726 277 l 451 897 z "},"N":{"ha":1249,"x_min":0,"x_max":0,"o":"m 149 897 l 149 0 l 338 0 l 338 665 l 848 0 l 1100 0 l 1100 897 l 910 897 l 910 219 l 401 897 z "},"Ñ":{"ha":1249,"x_min":0,"x_max":0,"o":"m 149 897 l 149 0 l 338 0 l 338 665 l 848 0 l 1100 0 l 1100 897 l 910 897 l 910 219 l 401 897 z m 354 1048 l 472 999 b 543 1076 494 1054 510 1076 b 635 1029 569 1076 594 1051 b 759 1001 665 1014 704 1001 b 949 1184 833 1001 913 1030 l 825 1222 b 761 1143 805 1160 787 1143 b 663 1175 722 1143 692 1158 b 542 1221 626 1197 592 1221 b 354 1048 453 1221 388 1174 z "},"Ń":{"ha":1249,"x_min":0,"x_max":0,"o":"m 149 897 l 149 0 l 338 0 l 338 665 l 848 0 l 1100 0 l 1100 897 l 910 897 l 910 219 l 401 897 z m 533 1102 l 607 982 l 913 1138 l 835 1272 z "},"Ņ":{"ha":1249,"x_min":0,"x_max":0,"o":"m 149 897 l 149 0 l 338 0 l 338 665 l 848 0 l 1100 0 l 1100 897 l 910 897 l 910 219 l 401 897 z m 542 -262 l 609 -262 l 545 -395 l 626 -437 l 744 -267 l 744 -102 l 542 -102 z "},"Ň":{"ha":1249,"x_min":0,"x_max":0,"o":"m 149 897 l 149 0 l 338 0 l 338 665 l 848 0 l 1100 0 l 1100 897 l 910 897 l 910 219 l 401 897 z m 413 1163 l 597 1017 l 724 1017 l 908 1164 l 803 1267 l 662 1137 l 519 1267 z "},"O":{"ha":1306,"x_min":0,"x_max":0,"o":"m 98 442 b 647 -40 98 98 345 -40 b 1208 446 949 -40 1208 106 b 656 935 1208 783 946 935 b 98 442 379 935 98 790 z m 301 444 b 653 765 301 662 456 765 b 1004 444 848 765 1004 662 b 646 129 1004 227 851 129 b 301 444 446 129 301 228 z "},"Ò":{"ha":1306,"x_min":0,"x_max":0,"o":"m 98 442 b 647 -40 98 98 345 -40 b 1208 446 949 -40 1208 106 b 656 935 1208 783 946 935 b 98 442 379 935 98 790 z m 301 444 b 653 765 301 662 456 765 b 1004 444 848 765 1004 662 b 646 129 1004 227 851 129 b 301 444 446 129 301 228 z m 444 1138 l 750 982 l 824 1102 l 522 1272 z "},"Ó":{"ha":1306,"x_min":0,"x_max":0,"o":"m 98 442 b 647 -40 98 98 345 -40 b 1208 446 949 -40 1208 106 b 656 935 1208 783 946 935 b 98 442 379 935 98 790 z m 301 444 b 653 765 301 662 456 765 b 1004 444 848 765 1004 662 b 646 129 1004 227 851 129 b 301 444 446 129 301 228 z m 533 1102 l 607 982 l 913 1138 l 835 1272 z "},"Ô":{"ha":1306,"x_min":0,"x_max":0,"o":"m 98 442 b 647 -40 98 98 345 -40 b 1208 446 949 -40 1208 106 b 656 935 1208 783 946 935 b 98 442 379 935 98 790 z m 301 444 b 653 765 301 662 456 765 b 1004 444 848 765 1004 662 b 646 129 1004 227 851 129 b 301 444 446 129 301 228 z m 405 1085 l 510 983 l 651 1113 l 794 983 l 900 1087 l 717 1232 l 589 1232 z "},"Õ":{"ha":1306,"x_min":0,"x_max":0,"o":"m 98 442 b 647 -40 98 98 345 -40 b 1208 446 949 -40 1208 106 b 656 935 1208 783 946 935 b 98 442 379 935 98 790 z m 301 444 b 653 765 301 662 456 765 b 1004 444 848 765 1004 662 b 646 129 1004 227 851 129 b 301 444 446 129 301 228 z m 351 1048 l 469 999 b 540 1076 492 1054 507 1076 b 633 1029 567 1076 592 1051 b 756 1001 663 1014 701 1001 b 947 1184 830 1001 910 1030 l 822 1222 b 758 1143 802 1160 784 1143 b 660 1175 719 1143 689 1158 b 539 1221 624 1197 589 1221 b 351 1048 451 1221 385 1174 z "},"Ö":{"ha":1306,"x_min":0,"x_max":0,"o":"m 98 442 b 647 -40 98 98 345 -40 b 1208 446 949 -40 1208 106 b 656 935 1208 783 946 935 b 98 442 379 935 98 790 z m 301 444 b 653 765 301 662 456 765 b 1004 444 848 765 1004 662 b 646 129 1004 227 851 129 b 301 444 446 129 301 228 z m 381 1006 l 579 1006 l 579 1188 l 381 1188 z m 705 1006 l 903 1006 l 903 1188 l 705 1188 z "},"Ō":{"ha":1306,"x_min":0,"x_max":0,"o":"m 98 442 b 647 -40 98 98 345 -40 b 1208 446 949 -40 1208 106 b 656 935 1208 783 946 935 b 98 442 379 935 98 790 z m 301 444 b 653 765 301 662 456 765 b 1004 444 848 765 1004 662 b 646 129 1004 227 851 129 b 301 444 446 129 301 228 z m 405 1028 l 898 1028 l 898 1169 l 405 1169 z "},"Ŏ":{"ha":1306,"x_min":0,"x_max":0,"o":"m 98 442 b 647 -40 98 98 345 -40 b 1208 446 949 -40 1208 106 b 656 935 1208 783 946 935 b 98 442 379 935 98 790 z m 301 444 b 653 765 301 662 456 765 b 1004 444 848 765 1004 662 b 646 129 1004 227 851 129 b 301 444 446 129 301 228 z m 399 1194 b 653 981 410 1061 505 981 b 908 1194 802 981 894 1062 l 756 1217 b 653 1112 743 1122 690 1112 b 551 1217 617 1112 564 1122 z "},"Ő":{"ha":1306,"x_min":0,"x_max":0,"o":"m 98 442 b 647 -40 98 98 345 -40 b 1208 446 949 -40 1208 106 b 656 935 1208 783 946 935 b 98 442 379 935 98 790 z m 301 444 b 653 765 301 662 456 765 b 1004 444 848 765 1004 662 b 646 129 1004 227 851 129 b 301 444 446 129 301 228 z m 391 1076 l 505 980 l 731 1201 l 610 1313 z m 708 1094 l 810 987 l 1060 1184 l 952 1306 z "},"P":{"ha":1126,"x_min":0,"x_max":0,"o":"m 692 897 l 149 897 l 149 0 l 345 0 l 345 210 l 660 210 b 1078 540 952 210 1078 313 b 692 897 1078 790 938 897 z m 345 372 l 345 735 l 688 735 b 874 541 801 735 874 677 b 662 372 874 426 830 372 z "},"Q":{"ha":1306,"x_min":0,"x_max":0,"o":"m 623 278 l 708 133 b 646 129 688 131 667 129 b 301 444 446 129 301 228 b 653 765 301 662 456 765 b 1004 444 848 765 1004 662 b 883 191 1004 325 958 242 l 779 368 z m 98 442 b 647 -40 98 98 345 -40 b 801 -26 700 -40 751 -36 l 900 -197 l 1056 -106 l 975 33 b 1208 446 1115 108 1208 242 b 656 935 1208 783 946 935 b 98 442 379 935 98 790 z "},"R":{"ha":1208,"x_min":0,"x_max":0,"o":"m 813 257 l 934 -37 l 1109 40 l 990 322 b 1106 560 1067 373 1106 452 b 717 897 1106 798 960 897 l 149 897 l 149 0 l 345 0 l 345 245 l 651 245 b 813 257 710 245 764 249 z m 345 407 l 345 735 l 714 735 b 902 562 825 735 902 695 b 688 407 902 460 856 407 z "},"Ŕ":{"ha":1208,"x_min":0,"x_max":0,"o":"m 813 257 l 934 -37 l 1109 40 l 990 322 b 1106 560 1067 373 1106 452 b 717 897 1106 798 960 897 l 149 897 l 149 0 l 345 0 l 345 245 l 651 245 b 813 257 710 245 764 249 z m 345 407 l 345 735 l 714 735 b 902 562 825 735 902 695 b 688 407 902 460 856 407 z m 435 1103 l 509 983 l 815 1138 l 738 1273 z "},"Ŗ":{"ha":1208,"x_min":0,"x_max":0,"o":"m 813 257 l 934 -37 l 1109 40 l 990 322 b 1106 560 1067 373 1106 452 b 717 897 1106 798 960 897 l 149 897 l 149 0 l 345 0 l 345 245 l 651 245 b 813 257 710 245 764 249 z m 345 407 l 345 735 l 714 735 b 902 562 825 735 902 695 b 688 407 902 460 856 407 z m 521 -262 l 588 -262 l 524 -395 l 604 -437 l 723 -267 l 723 -102 l 521 -102 z "},"Ř":{"ha":1208,"x_min":0,"x_max":0,"o":"m 813 257 l 934 -37 l 1109 40 l 990 322 b 1106 560 1067 373 1106 452 b 717 897 1106 798 960 897 l 149 897 l 149 0 l 345 0 l 345 245 l 651 245 b 813 257 710 245 764 249 z m 345 407 l 345 735 l 714 735 b 902 562 825 735 902 695 b 688 407 902 460 856 407 z m 374 1163 l 558 1017 l 685 1017 l 869 1164 l 765 1267 l 623 1137 l 480 1267 z "},"S":{"ha":1106,"x_min":0,"x_max":0,"o":"m 156 209 l 98 44 b 524 -40 189 2 347 -40 b 1019 269 851 -40 1019 51 b 667 547 1019 489 844 533 b 308 654 488 561 308 547 b 556 767 308 726 381 767 b 908 710 678 767 777 751 l 961 869 b 556 933 861 903 704 933 b 116 642 358 933 116 865 b 485 372 116 417 303 383 b 833 253 661 361 833 371 b 529 128 833 165 737 128 b 156 209 385 128 235 173 z "},"Ś":{"ha":1106,"x_min":0,"x_max":0,"o":"m 156 209 l 98 44 b 524 -40 189 2 347 -40 b 1019 269 851 -40 1019 51 b 667 547 1019 489 844 533 b 308 654 488 561 308 547 b 556 767 308 726 381 767 b 908 710 678 767 777 751 l 961 869 b 556 933 861 903 704 933 b 116 642 358 933 116 865 b 485 372 116 417 303 383 b 833 253 661 361 833 371 b 529 128 833 165 737 128 b 156 209 385 128 235 173 z m 435 1102 l 509 982 l 815 1138 l 738 1272 z "},"Ŝ":{"ha":1106,"x_min":0,"x_max":0,"o":"m 156 209 l 98 44 b 524 -40 189 2 347 -40 b 1019 269 851 -40 1019 51 b 667 547 1019 489 844 533 b 308 654 488 561 308 547 b 556 767 308 726 381 767 b 908 710 678 767 777 751 l 961 869 b 556 933 861 903 704 933 b 116 642 358 933 116 865 b 485 372 116 417 303 383 b 833 253 661 361 833 371 b 529 128 833 165 737 128 b 156 209 385 128 235 173 z m 308 1085 l 413 983 l 555 1113 l 698 983 l 803 1087 l 620 1232 l 492 1232 z "},"Ş":{"ha":1106,"x_min":0,"x_max":0,"o":"m 156 209 l 98 44 b 510 -40 186 3 338 -38 b 606 -121 585 -73 606 -100 b 540 -162 606 -151 576 -162 b 408 -135 509 -162 461 -152 l 372 -255 b 560 -290 408 -268 481 -290 b 767 -131 684 -290 767 -234 b 726 -25 767 -92 754 -57 b 1019 269 920 9 1019 101 b 667 547 1019 489 844 533 b 308 654 488 561 308 547 b 556 767 308 726 381 767 b 908 710 678 767 777 751 l 961 869 b 556 933 861 903 704 933 b 116 642 358 933 116 865 b 485 372 116 417 303 383 b 833 253 661 361 833 371 b 529 128 833 165 737 128 b 156 209 385 128 235 173 z "},"Š":{"ha":1106,"x_min":0,"x_max":0,"o":"m 156 209 l 98 44 b 524 -40 189 2 347 -40 b 1019 269 851 -40 1019 51 b 667 547 1019 489 844 533 b 308 654 488 561 308 547 b 556 767 308 726 381 767 b 908 710 678 767 777 751 l 961 869 b 556 933 861 903 704 933 b 116 642 358 933 116 865 b 485 372 116 417 303 383 b 833 253 661 361 833 371 b 529 128 833 165 737 128 b 156 209 385 128 235 173 z m 310 1163 l 494 1017 l 622 1017 l 806 1164 l 701 1267 l 559 1137 l 416 1267 z "},"Ș":{"ha":1106,"x_min":0,"x_max":0,"o":"m 469 -395 l 550 -437 l 669 -267 l 669 -102 l 467 -102 l 467 -262 l 533 -262 z m 98 44 b 524 -40 189 2 347 -40 b 1019 269 851 -40 1019 51 b 667 547 1019 489 844 533 b 308 654 488 561 308 547 b 556 767 308 726 381 767 b 908 710 678 767 777 751 l 961 869 b 556 933 861 903 704 933 b 116 642 358 933 116 865 b 485 372 116 417 303 383 b 833 253 661 361 833 371 b 529 128 833 165 737 128 b 156 209 385 128 235 173 z "},"T":{"ha":1017,"x_min":0,"x_max":0,"o":"m 399 732 l 399 0 l 595 0 l 595 732 l 1003 732 l 1003 896 l 14 896 l 14 732 z "},"Ţ":{"ha":1017,"x_min":0,"x_max":0,"o":"m 400 -396 l 481 -438 l 599 -268 l 599 -103 l 397 -103 l 397 -262 l 464 -262 z m 14 732 l 399 732 l 399 0 l 595 0 l 595 732 l 1003 732 l 1003 896 l 14 896 z "},"Ť":{"ha":1017,"x_min":0,"x_max":0,"o":"m 247 1163 l 431 1017 l 558 1017 l 742 1164 l 638 1267 l 496 1137 l 353 1267 z m 14 732 l 399 732 l 399 0 l 595 0 l 595 732 l 1003 732 l 1003 896 l 14 896 z "},"U":{"ha":1192,"x_min":0,"x_max":0,"o":"m 128 408 b 595 -40 128 17 397 -40 b 1063 409 790 -40 1063 26 l 1063 897 l 867 896 l 867 415 b 597 129 867 188 738 129 b 325 415 455 129 325 188 l 325 896 l 128 897 z "},"Ù":{"ha":1192,"x_min":0,"x_max":0,"o":"m 128 408 b 595 -40 128 17 397 -40 b 1063 409 790 -40 1063 26 l 1063 897 l 867 896 l 867 415 b 597 129 867 188 738 129 b 325 415 455 129 325 188 l 325 896 l 128 897 z m 331 1138 l 637 982 l 710 1102 l 408 1272 z "},"Ú":{"ha":1192,"x_min":0,"x_max":0,"o":"m 447 1102 l 521 982 l 826 1138 l 749 1272 z m 128 408 b 595 -40 128 17 397 -40 b 1063 409 790 -40 1063 26 l 1063 897 l 867 896 l 867 415 b 597 129 867 188 738 129 b 325 415 455 129 325 188 l 325 896 l 128 897 z "},"Û":{"ha":1192,"x_min":0,"x_max":0,"o":"m 356 1085 l 461 983 l 603 1113 l 746 983 l 851 1087 l 668 1232 l 540 1232 z m 128 408 b 595 -40 128 17 397 -40 b 1063 409 790 -40 1063 26 l 1063 897 l 867 896 l 867 415 b 597 129 867 188 738 129 b 325 415 455 129 325 188 l 325 896 l 128 897 z "},"Ü":{"ha":1192,"x_min":0,"x_max":0,"o":"m 331 1188 l 331 1006 l 529 1006 l 529 1188 z m 128 408 b 595 -40 128 17 397 -40 b 1063 409 790 -40 1063 26 l 1063 897 l 867 896 l 867 415 b 597 129 867 188 738 129 b 325 415 455 129 325 188 l 325 896 l 128 897 z m 655 1006 l 853 1006 l 853 1188 l 655 1188 z "},"Ũ":{"ha":1192,"x_min":0,"x_max":0,"o":"m 128 408 b 595 -40 128 17 397 -40 b 1063 409 790 -40 1063 26 l 1063 897 l 867 896 l 867 415 b 597 129 867 188 738 129 b 325 415 455 129 325 188 l 325 896 l 128 897 z m 298 1048 l 416 999 b 487 1076 438 1054 453 1076 b 579 1029 513 1076 538 1051 b 703 1001 609 1014 648 1001 b 893 1184 776 1001 856 1030 l 769 1222 b 705 1143 749 1160 731 1143 b 607 1175 665 1143 635 1158 b 485 1221 570 1197 535 1221 b 298 1048 397 1221 332 1174 z "},"Ū":{"ha":1192,"x_min":0,"x_max":0,"o":"m 128 408 b 595 -40 128 17 397 -40 b 1063 409 790 -40 1063 26 l 1063 897 l 867 896 l 867 415 b 597 129 867 188 738 129 b 325 415 455 129 325 188 l 325 896 l 128 897 z m 343 1028 l 836 1028 l 836 1169 l 343 1169 z "},"Ŭ":{"ha":1192,"x_min":0,"x_max":0,"o":"m 128 408 b 595 -40 128 17 397 -40 b 1063 409 790 -40 1063 26 l 1063 897 l 867 896 l 867 415 b 597 129 867 188 738 129 b 325 415 455 129 325 188 l 325 896 l 128 897 z m 351 1194 b 606 981 362 1061 457 981 b 860 1194 754 981 847 1062 l 708 1217 b 606 1112 695 1122 642 1112 b 503 1217 569 1112 516 1122 z "},"Ů":{"ha":1192,"x_min":0,"x_max":0,"o":"m 400 1131 b 606 956 400 1031 475 956 b 812 1131 730 956 812 1031 b 606 1304 812 1231 728 1304 b 400 1131 483 1304 400 1231 z m 128 408 b 595 -40 128 17 397 -40 b 1063 409 790 -40 1063 26 l 1063 897 l 867 896 l 867 415 b 597 129 867 188 738 129 b 325 415 455 129 325 188 l 325 896 l 128 897 z m 533 1131 b 606 1198 533 1171 560 1198 b 678 1131 651 1198 678 1171 b 606 1063 678 1090 649 1063 b 533 1131 560 1063 533 1090 z "},"Ű":{"ha":1192,"x_min":0,"x_max":0,"o":"m 128 408 b 595 -40 128 17 397 -40 b 1063 409 790 -40 1063 26 l 1063 897 l 867 896 l 867 415 b 597 129 867 188 738 129 b 325 415 455 129 325 188 l 325 896 l 128 897 z m 337 1076 l 451 980 l 676 1201 l 556 1313 z m 653 1094 l 756 987 l 1006 1184 l 898 1306 z "},"Ų":{"ha":1192,"x_min":0,"x_max":0,"o":"m 458 -131 b 651 -290 458 -234 535 -290 b 853 -255 729 -290 821 -266 l 817 -133 b 671 -160 758 -150 708 -160 b 621 -121 642 -160 621 -151 b 732 -28 621 -97 644 -66 b 1063 409 897 4 1063 110 l 1063 897 l 867 896 l 867 415 b 597 129 867 188 738 129 b 325 415 455 129 325 188 l 325 896 l 128 897 l 128 408 b 492 -34 128 81 315 -12 b 458 -131 471 -63 458 -95 z "},"V":{"ha":1103,"x_min":0,"x_max":0,"o":"m 21 836 l 434 0 l 676 0 l 1092 852 l 916 929 l 558 183 l 198 928 z "},"W":{"ha":1550,"x_min":0,"x_max":0,"o":"m 53 872 l 326 0 l 574 0 l 774 712 l 994 0 l 1239 0 l 1497 881 l 1319 928 l 1115 197 l 901 897 l 647 897 l 456 205 l 241 928 z "},"Ŵ":{"ha":1550,"x_min":0,"x_max":0,"o":"m 523 1085 l 628 983 l 769 1113 l 913 983 l 1018 1087 l 835 1232 l 707 1232 z m 53 872 l 326 0 l 574 0 l 774 712 l 994 0 l 1239 0 l 1497 881 l 1319 928 l 1115 197 l 901 897 l 647 897 l 456 205 l 241 928 z "},"Ẁ":{"ha":1550,"x_min":0,"x_max":0,"o":"m 53 872 l 326 0 l 574 0 l 774 712 l 994 0 l 1239 0 l 1497 881 l 1319 928 l 1115 197 l 901 897 l 647 897 l 456 205 l 241 928 z m 518 1138 l 824 982 l 897 1102 l 595 1272 z "},"Ẃ":{"ha":1550,"x_min":0,"x_max":0,"o":"m 660 1102 l 734 982 l 1040 1138 l 963 1272 z m 53 872 l 326 0 l 574 0 l 774 712 l 994 0 l 1239 0 l 1497 881 l 1319 928 l 1115 197 l 901 897 l 647 897 l 456 205 l 241 928 z "},"Ẅ":{"ha":1550,"x_min":0,"x_max":0,"o":"m 522 1188 l 522 1006 l 721 1006 l 721 1188 z m 53 872 l 326 0 l 574 0 l 774 712 l 994 0 l 1239 0 l 1497 881 l 1319 928 l 1115 197 l 901 897 l 647 897 l 456 205 l 241 928 z m 847 1006 l 1045 1006 l 1045 1188 l 847 1188 z "},"X":{"ha":1120,"x_min":0,"x_max":0,"o":"m 56 89 l 188 -37 l 557 335 l 940 -37 l 1077 89 l 688 460 l 1037 802 l 908 928 l 562 581 l 213 928 l 77 798 l 430 456 z "},"Y":{"ha":1115,"x_min":0,"x_max":0,"o":"m 473 267 l 473 0 l 669 0 l 669 269 l 1107 824 l 971 928 l 576 433 l 165 928 l 24 813 z "},"Ý":{"ha":1115,"x_min":0,"x_max":0,"o":"m 473 267 l 473 0 l 669 0 l 669 269 l 1107 824 l 971 928 l 576 433 l 165 928 l 24 813 z m 438 1102 l 512 982 l 817 1138 l 740 1272 z "},"Ŷ":{"ha":1115,"x_min":0,"x_max":0,"o":"m 473 267 l 473 0 l 669 0 l 669 269 l 1107 824 l 971 928 l 576 433 l 165 928 l 24 813 z m 333 1085 l 438 983 l 579 1113 l 722 983 l 828 1087 l 644 1232 l 517 1232 z "},"Ÿ":{"ha":1115,"x_min":0,"x_max":0,"o":"m 473 267 l 473 0 l 669 0 l 669 269 l 1107 824 l 971 928 l 576 433 l 165 928 l 24 813 z m 299 1006 l 498 1006 l 498 1188 l 299 1188 z m 624 1006 l 822 1006 l 822 1188 l 624 1188 z "},"Z":{"ha":1048,"x_min":0,"x_max":0,"o":"m 60 176 l 60 0 l 992 0 l 992 162 l 308 162 l 963 712 l 963 897 l 103 897 l 103 735 l 716 735 z "},"Ź":{"ha":1048,"x_min":0,"x_max":0,"o":"m 412 1102 l 485 982 l 791 1138 l 714 1272 z m 60 0 l 992 0 l 992 162 l 308 162 l 963 712 l 963 897 l 103 897 l 103 735 l 716 735 l 60 176 z "},"Ż":{"ha":1048,"x_min":0,"x_max":0,"o":"m 60 176 l 60 0 l 992 0 l 992 162 l 308 162 l 963 712 l 963 897 l 103 897 l 103 735 l 716 735 z m 455 1006 l 653 1006 l 653 1188 l 455 1188 z "},"Ž":{"ha":1048,"x_min":0,"x_max":0,"o":"m 302 1163 l 485 1017 l 613 1017 l 797 1164 l 692 1267 l 551 1137 l 408 1267 z m 60 0 l 992 0 l 992 162 l 308 162 l 963 712 l 963 897 l 103 897 l 103 735 l 716 735 l 60 176 z "},"Æ":{"ha":1713,"x_min":0,"x_max":0,"o":"m 43 70 l 186 -40 l 354 182 l 807 182 l 807 0 l 1641 0 l 1641 160 l 997 160 l 997 377 l 1535 377 l 1535 535 l 997 535 l 997 737 l 1625 737 l 1625 897 l 692 897 z m 468 333 l 807 782 l 807 333 z "},"Ǽ":{"ha":1713,"x_min":0,"x_max":0,"o":"m 731 1102 l 805 982 l 1110 1138 l 1033 1272 z m 43 70 l 186 -40 l 354 182 l 807 182 l 807 0 l 1641 0 l 1641 160 l 997 160 l 997 377 l 1535 377 l 1535 535 l 997 535 l 997 737 l 1625 737 l 1625 897 l 692 897 z m 468 333 l 807 782 l 807 333 z "},"Ð":{"ha":1247,"x_min":0,"x_max":0,"o":"m 31 511 l 31 364 l 176 364 l 176 0 l 594 0 b 1150 440 963 0 1150 119 b 599 897 1150 747 982 897 l 176 897 l 176 511 z m 373 162 l 373 364 l 614 364 l 614 511 l 373 511 l 373 735 l 607 735 b 947 441 861 735 947 622 b 615 162 947 276 868 162 z "},"Ø":{"ha":1306,"x_min":0,"x_max":0,"o":"m 98 58 l 188 -40 l 293 48 b 647 -40 389 -13 513 -40 b 1208 446 949 -40 1208 106 b 1118 737 1208 566 1174 663 l 1215 818 l 1126 917 l 1022 831 b 656 935 922 901 792 935 b 98 442 379 935 98 790 b 192 138 98 313 133 213 z m 301 444 b 653 765 301 662 456 765 b 874 707 737 765 814 746 l 347 266 b 301 444 317 313 301 372 z m 444 174 l 965 609 b 1004 444 990 565 1004 510 b 646 129 1004 227 851 129 b 444 174 569 129 500 144 z "},"Ǿ":{"ha":1306,"x_min":0,"x_max":0,"o":"m 181 -40 l 290 50 b 647 -40 386 -12 511 -40 b 1208 446 949 -40 1208 106 b 1116 740 1208 567 1174 665 l 1209 818 l 1119 917 l 1019 833 b 656 935 919 902 791 935 b 98 442 379 935 98 790 b 190 141 98 315 132 215 l 92 58 z m 301 444 b 653 765 301 662 456 765 b 870 709 735 765 810 747 l 344 269 b 301 444 317 316 301 374 z m 441 176 l 963 613 b 1004 444 990 567 1004 511 b 646 129 1004 227 851 129 b 441 176 567 129 497 144 z m 521 1102 l 594 982 l 900 1138 l 823 1272 z "},"Þ":{"ha":1138,"x_min":0,"x_max":0,"o":"m 149 0 l 345 0 l 345 141 l 640 141 b 1057 456 933 141 1057 240 b 671 799 1057 697 918 799 l 345 799 l 345 897 l 149 897 z m 345 303 l 345 638 l 667 638 b 853 458 782 638 853 580 b 641 303 853 357 806 303 z "},"Đ":{"ha":1247,"x_min":0,"x_max":0,"o":"m 31 511 l 31 364 l 176 364 l 176 0 l 594 0 b 1150 440 963 0 1150 119 b 599 897 1150 747 982 897 l 176 897 l 176 511 z m 373 162 l 373 364 l 614 364 l 614 511 l 373 511 l 373 735 l 607 735 b 947 441 861 735 947 622 b 615 162 947 276 868 162 z "},"Ħ":{"ha":1297,"x_min":0,"x_max":0,"o":"m 38 767 l 38 627 l 149 627 l 149 0 l 345 0 l 345 365 l 952 365 l 952 0 l 1149 0 l 1149 627 l 1247 627 l 1247 767 l 1149 767 l 1149 897 l 952 897 l 952 767 l 345 767 l 345 897 l 149 897 l 149 767 z m 345 526 l 345 627 l 952 627 l 952 526 z "},"Ĳ":{"ha":1433,"x_min":0,"x_max":0,"o":"m 149 897 l 149 0 l 345 0 l 345 897 z m 517 69 b 886 -40 591 15 724 -40 b 1305 332 1080 -40 1305 17 l 1305 897 l 1108 897 l 1108 336 b 889 128 1108 168 1005 128 b 592 222 767 128 671 171 z "},"Ŀ":{"ha":960,"x_min":0,"x_max":0,"o":"m 149 897 l 149 0 l 944 0 l 944 164 l 345 164 l 345 897 z m 605 431 l 807 431 l 807 627 l 605 627 z "},"Ł":{"ha":960,"x_min":0,"x_max":0,"o":"m -36 405 l 23 278 l 149 338 l 149 0 l 944 0 l 944 164 l 345 164 l 345 429 l 572 535 l 513 662 l 345 583 l 345 897 l 149 897 l 149 491 z "},"Ŋ":{"ha":1238,"x_min":0,"x_max":0,"o":"m 672 -165 l 672 -318 b 700 -319 681 -318 691 -319 b 1090 -31 883 -319 1090 -265 l 1090 897 l 900 897 l 900 238 l 361 897 l 138 897 l 138 0 l 328 0 l 328 647 l 899 -35 b 672 -165 886 -140 772 -165 z "},"Œ":{"ha":1692,"x_min":0,"x_max":0,"o":"m 98 442 b 613 0 98 127 329 0 l 1590 0 l 1590 162 l 975 162 l 975 374 l 1485 374 l 1485 533 l 975 533 l 975 735 l 1574 735 l 1574 897 l 622 897 b 98 442 362 897 98 761 z m 301 444 b 618 735 301 640 442 735 l 778 735 l 778 162 l 611 162 b 301 444 432 162 301 251 z "},"Ŧ":{"ha":1017,"x_min":0,"x_max":0,"o":"m 206 497 l 206 369 l 399 369 l 399 0 l 595 0 l 595 369 l 816 369 l 816 497 l 595 497 l 595 732 l 1003 732 l 1003 896 l 14 896 l 14 732 l 399 732 l 399 497 z "},"Ω":{"ha":1297,"x_min":0,"x_max":0,"o":"m 86 0 l 576 0 l 576 133 b 323 480 422 216 323 333 b 649 794 323 693 469 794 b 974 480 824 794 974 693 b 721 133 974 333 876 216 l 721 0 l 1211 0 l 1211 133 l 966 133 b 1172 492 1087 203 1172 338 b 649 949 1172 791 921 949 b 125 492 376 949 125 791 b 329 133 125 338 194 215 l 86 133 z "},"a":{"ha":975,"x_min":0,"x_max":0,"o":"m 83 194 b 356 -26 83 31 217 -26 b 689 79 469 -26 580 6 l 714 0 l 872 0 l 872 415 b 490 704 872 648 688 704 b 142 651 333 704 209 674 l 181 502 b 476 551 247 524 363 551 b 680 436 639 551 680 490 l 680 430 b 496 441 615 438 553 441 b 83 194 250 441 83 370 z m 280 202 b 510 308 280 255 323 308 b 681 297 558 308 614 305 l 681 226 b 394 126 573 155 486 126 b 280 202 309 126 280 162 z "},"à":{"ha":975,"x_min":0,"x_max":0,"o":"m 83 194 b 356 -26 83 31 217 -26 b 689 79 469 -26 580 6 l 714 0 l 872 0 l 872 415 b 490 704 872 648 688 704 b 142 651 333 704 209 674 l 181 502 b 476 551 247 524 363 551 b 680 436 639 551 680 490 l 680 430 b 496 441 615 438 553 441 b 83 194 250 441 83 370 z m 280 202 b 510 308 280 255 323 308 b 681 297 558 308 614 305 l 681 226 b 394 126 573 155 486 126 b 280 202 309 126 280 162 z m 335 972 l 554 763 l 660 856 l 449 1078 z "},"á":{"ha":975,"x_min":0,"x_max":0,"o":"m 83 194 b 356 -26 83 31 217 -26 b 689 79 469 -26 580 6 l 714 0 l 872 0 l 872 415 b 490 704 872 648 688 704 b 142 651 333 704 209 674 l 181 502 b 476 551 247 524 363 551 b 680 436 639 551 680 490 l 680 430 b 496 441 615 438 553 441 b 83 194 250 441 83 370 z m 280 202 b 510 308 280 255 323 308 b 681 297 558 308 614 305 l 681 226 b 394 126 573 155 486 126 b 280 202 309 126 280 162 z m 365 858 l 467 763 l 686 972 l 573 1078 z "},"â":{"ha":975,"x_min":0,"x_max":0,"o":"m 83 194 b 356 -26 83 31 217 -26 b 689 79 469 -26 580 6 l 714 0 l 872 0 l 872 415 b 490 704 872 648 688 704 b 142 651 333 704 209 674 l 181 502 b 476 551 247 524 363 551 b 680 436 639 551 680 490 l 680 430 b 496 441 615 438 553 441 b 83 194 250 441 83 370 z m 280 202 b 510 308 280 255 323 308 b 681 297 558 308 614 305 l 681 226 b 394 126 573 155 486 126 b 280 202 309 126 280 162 z m 283 831 l 385 751 l 506 923 l 626 753 l 731 832 l 592 1016 l 433 1016 z "},"ã":{"ha":975,"x_min":0,"x_max":0,"o":"m 83 194 b 356 -26 83 31 217 -26 b 689 79 469 -26 580 6 l 714 0 l 872 0 l 872 415 b 490 704 872 648 688 704 b 142 651 333 704 209 674 l 181 502 b 476 551 247 524 363 551 b 680 436 639 551 680 490 l 680 430 b 496 441 615 438 553 441 b 83 194 250 441 83 370 z m 237 800 l 351 757 b 420 835 360 808 391 835 b 510 800 456 835 476 822 b 610 767 540 781 572 767 b 794 944 678 767 758 788 l 676 981 b 603 901 651 919 636 901 b 528 935 576 901 554 918 b 417 971 494 956 461 971 b 237 800 334 971 263 929 z m 280 202 b 510 308 280 255 323 308 b 681 297 558 308 614 305 l 681 226 b 394 126 573 155 486 126 b 280 202 309 126 280 162 z "},"ä":{"ha":975,"x_min":0,"x_max":0,"o":"m 83 194 b 356 -26 83 31 217 -26 b 689 79 469 -26 580 6 l 714 0 l 872 0 l 872 415 b 490 704 872 648 688 704 b 142 651 333 704 209 674 l 181 502 b 476 551 247 524 363 551 b 680 436 639 551 680 490 l 680 430 b 496 441 615 438 553 441 b 83 194 250 441 83 370 z m 246 778 l 444 778 l 444 960 l 246 960 z m 280 202 b 510 308 280 255 323 308 b 681 297 558 308 614 305 l 681 226 b 394 126 573 155 486 126 b 280 202 309 126 280 162 z m 572 778 l 771 778 l 771 960 l 572 960 z "},"å":{"ha":975,"x_min":0,"x_max":0,"o":"m 83 194 b 356 -26 83 31 217 -26 b 689 79 469 -26 580 6 l 714 0 l 872 0 l 872 415 b 490 704 872 648 688 704 b 142 651 333 704 209 674 l 181 502 b 476 551 247 524 363 551 b 680 436 639 551 680 490 l 680 430 b 496 441 615 438 553 441 b 83 194 250 441 83 370 z m 280 202 b 510 308 280 255 323 308 b 681 297 558 308 614 305 l 681 226 b 394 126 573 155 486 126 b 280 202 309 126 280 162 z m 331 905 b 509 752 331 819 393 752 b 688 905 619 752 688 819 b 509 1057 688 992 617 1057 b 331 905 400 1057 331 992 z m 440 905 b 509 965 440 944 465 965 b 576 905 553 965 576 944 b 509 846 576 866 551 846 b 440 905 465 846 440 866 z "},"ā":{"ha":975,"x_min":0,"x_max":0,"o":"m 83 194 b 356 -26 83 31 217 -26 b 689 79 469 -26 580 6 l 714 0 l 872 0 l 872 415 b 490 704 872 648 688 704 b 142 651 333 704 209 674 l 181 502 b 476 551 247 524 363 551 b 680 436 639 551 680 490 l 680 430 b 496 441 615 438 553 441 b 83 194 250 441 83 370 z m 280 202 b 510 308 280 255 323 308 b 681 297 558 308 614 305 l 681 226 b 394 126 573 155 486 126 b 280 202 309 126 280 162 z m 300 778 l 731 778 l 731 920 l 300 920 z "},"ă":{"ha":975,"x_min":0,"x_max":0,"o":"m 83 194 b 356 -26 83 31 217 -26 b 689 79 469 -26 580 6 l 714 0 l 872 0 l 872 415 b 490 704 872 648 688 704 b 142 651 333 704 209 674 l 181 502 b 476 551 247 524 363 551 b 680 436 639 551 680 490 l 680 430 b 496 441 615 438 553 441 b 83 194 250 441 83 370 z m 275 978 b 516 752 284 840 369 752 b 757 978 663 752 745 840 l 608 1001 b 516 879 595 894 552 879 b 424 1001 480 879 437 894 z m 280 202 b 510 308 280 255 323 308 b 681 297 558 308 614 305 l 681 226 b 394 126 573 155 486 126 b 280 202 309 126 280 162 z "},"ą":{"ha":975,"x_min":0,"x_max":0,"o":"m 526 -151 b 713 -290 526 -242 607 -290 b 887 -255 792 -290 864 -266 l 850 -133 b 753 -160 811 -150 777 -160 b 689 -119 712 -160 689 -151 b 872 0 689 -92 729 -53 l 872 415 b 490 704 872 648 688 704 b 142 651 333 704 209 674 l 181 502 b 476 551 247 524 363 551 b 680 436 639 551 680 490 l 680 430 b 496 441 615 438 553 441 b 83 194 250 441 83 370 b 356 -26 83 31 217 -26 b 689 79 469 -26 580 6 l 703 35 b 526 -151 599 -10 526 -63 z m 280 202 b 510 308 280 255 323 308 b 681 297 558 308 614 305 l 681 226 b 394 126 573 155 486 126 b 280 202 309 126 280 162 z "},"ǻ":{"ha":975,"x_min":0,"x_max":0,"o":"m 331 1178 l 399 1067 l 674 1185 l 603 1310 z m 83 194 b 356 -26 83 31 217 -26 b 689 79 469 -26 580 6 l 714 0 l 872 0 l 872 415 b 490 704 872 648 688 704 b 142 651 333 704 209 674 l 181 502 b 476 551 247 524 363 551 b 680 436 639 551 680 490 l 680 430 b 496 441 615 438 553 441 b 83 194 250 441 83 370 z m 280 202 b 510 308 280 255 323 308 b 681 297 558 308 614 305 l 681 226 b 394 126 573 155 486 126 b 280 202 309 126 280 162 z m 329 905 b 508 752 329 819 392 752 b 686 905 617 752 686 819 b 508 1057 686 992 615 1057 b 329 905 399 1057 329 992 z m 439 905 b 508 965 439 944 463 965 b 575 905 551 965 575 944 b 508 846 575 866 549 846 b 439 905 463 846 439 866 z "},"b":{"ha":1006,"x_min":0,"x_max":0,"o":"m 281 70 b 551 -26 345 9 440 -26 b 925 344 750 -26 925 68 b 569 703 925 594 748 703 b 308 629 448 703 363 665 l 308 982 l 115 982 l 115 0 l 251 0 z m 308 230 l 308 478 b 531 543 375 518 457 543 b 724 331 668 543 724 462 b 524 133 724 211 663 133 b 308 230 455 133 367 171 z "},"c":{"ha":922,"x_min":0,"x_max":0,"o":"m 81 335 b 490 -26 81 90 242 -26 b 853 76 621 -26 734 3 l 772 222 b 505 133 691 170 600 133 b 280 332 377 133 280 197 b 516 543 280 491 390 543 b 763 472 586 543 671 515 l 825 631 b 508 703 732 675 638 703 b 81 335 264 703 81 576 z "},"ç":{"ha":922,"x_min":0,"x_max":0,"o":"m 81 335 b 383 -18 81 128 197 12 b 535 -121 504 -62 535 -95 b 469 -162 535 -151 505 -162 b 338 -135 438 -162 390 -152 l 301 -255 b 490 -290 337 -268 410 -290 b 696 -131 613 -290 696 -234 b 642 -11 696 -86 679 -46 b 853 76 713 4 782 33 l 772 222 b 505 133 691 170 600 133 b 280 332 377 133 280 197 b 516 543 280 491 390 543 b 763 472 586 543 671 515 l 825 631 b 508 703 732 675 638 703 b 81 335 264 703 81 576 z "},"ć":{"ha":922,"x_min":0,"x_max":0,"o":"m 81 335 b 490 -26 81 90 242 -26 b 853 76 621 -26 734 3 l 772 222 b 505 133 691 170 600 133 b 280 332 377 133 280 197 b 516 543 280 491 390 543 b 763 472 586 543 671 515 l 825 631 b 508 703 732 675 638 703 b 81 335 264 703 81 576 z m 357 847 l 460 752 l 678 961 l 565 1067 z "},"ĉ":{"ha":922,"x_min":0,"x_max":0,"o":"m 81 335 b 490 -26 81 90 242 -26 b 853 76 621 -26 734 3 l 772 222 b 505 133 691 170 600 133 b 280 332 377 133 280 197 b 516 543 280 491 390 543 b 763 472 586 543 671 515 l 825 631 b 508 703 732 675 638 703 b 81 335 264 703 81 576 z m 260 831 l 363 751 l 483 923 l 603 753 l 708 832 l 569 1016 l 410 1016 z "},"ċ":{"ha":922,"x_min":0,"x_max":0,"o":"m 395 960 l 395 778 l 594 778 l 594 960 z m 81 335 b 490 -26 81 90 242 -26 b 853 76 621 -26 734 3 l 772 222 b 505 133 691 170 600 133 b 280 332 377 133 280 197 b 516 543 280 491 390 543 b 763 472 586 543 671 515 l 825 631 b 508 703 732 675 638 703 b 81 335 264 703 81 576 z "},"č":{"ha":922,"x_min":0,"x_max":0,"o":"m 81 335 b 490 -26 81 90 242 -26 b 853 76 621 -26 734 3 l 772 222 b 505 133 691 170 600 133 b 280 332 377 133 280 197 b 516 543 280 491 390 543 b 763 472 586 543 671 515 l 825 631 b 508 703 732 675 638 703 b 81 335 264 703 81 576 z m 273 963 l 412 778 l 572 778 l 722 964 l 619 1044 l 498 872 l 378 1041 z "},"d":{"ha":1006,"x_min":0,"x_max":0,"o":"m 81 333 b 456 -26 81 92 238 -26 b 719 68 568 -26 656 21 l 741 0 l 890 0 l 890 982 l 697 982 l 697 650 b 470 703 636 681 563 703 b 81 333 255 703 81 585 z m 280 334 b 482 543 280 469 365 543 b 697 479 538 543 612 524 l 697 211 b 481 133 630 163 550 133 b 280 334 358 133 280 199 z "},"ď":{"ha":1172,"x_min":0,"x_max":0,"o":"m 1011 1001 l 974 668 l 1144 645 l 1203 975 z m 81 333 b 456 -26 81 92 238 -26 b 719 68 568 -26 656 21 l 741 0 l 890 0 l 890 982 l 697 982 l 697 650 b 470 703 636 681 563 703 b 81 333 255 703 81 585 z m 280 334 b 482 543 280 469 365 543 b 697 479 538 543 612 524 l 697 211 b 481 133 630 163 550 133 b 280 334 358 133 280 199 z "},"e":{"ha":953,"x_min":0,"x_max":0,"o":"m 492 -26 b 858 33 635 -26 744 -1 l 813 189 b 510 131 740 160 633 131 b 274 265 397 131 288 171 l 860 265 b 868 385 865 306 868 338 b 488 704 868 505 783 704 b 72 326 215 704 72 543 b 492 -26 72 88 238 -26 z m 273 394 b 488 554 288 483 359 554 b 687 394 588 554 663 504 z "},"è":{"ha":953,"x_min":0,"x_max":0,"o":"m 294 961 l 513 752 l 619 845 l 408 1067 z m 72 326 b 492 -26 72 88 238 -26 b 858 33 635 -26 744 -1 l 813 189 b 510 131 740 160 633 131 b 274 265 397 131 288 171 l 860 265 b 868 385 865 306 868 338 b 488 704 868 505 783 704 b 72 326 215 704 72 543 z m 273 394 b 488 554 288 483 359 554 b 687 394 588 554 663 504 z "},"é":{"ha":953,"x_min":0,"x_max":0,"o":"m 492 -26 b 858 33 635 -26 744 -1 l 813 189 b 510 131 740 160 633 131 b 274 265 397 131 288 171 l 860 265 b 868 385 865 306 868 338 b 488 704 868 505 783 704 b 72 326 215 704 72 543 b 492 -26 72 88 238 -26 z m 273 394 b 488 554 288 483 359 554 b 687 394 588 554 663 504 z m 365 847 l 467 753 l 686 962 l 573 1068 z "},"ê":{"ha":953,"x_min":0,"x_max":0,"o":"m 265 831 l 368 751 l 489 923 l 609 753 l 714 832 l 575 1016 l 415 1016 z m 72 326 b 492 -26 72 88 238 -26 b 858 33 635 -26 744 -1 l 813 189 b 510 131 740 160 633 131 b 274 265 397 131 288 171 l 860 265 b 868 385 865 306 868 338 b 488 704 868 505 783 704 b 72 326 215 704 72 543 z m 273 394 b 488 554 288 483 359 554 b 687 394 588 554 663 504 z "},"ë":{"ha":953,"x_min":0,"x_max":0,"o":"m 228 960 l 228 778 l 426 778 l 426 960 z m 72 326 b 492 -26 72 88 238 -26 b 858 33 635 -26 744 -1 l 813 189 b 510 131 740 160 633 131 b 274 265 397 131 288 171 l 860 265 b 868 385 865 306 868 338 b 488 704 868 505 783 704 b 72 326 215 704 72 543 z m 273 394 b 488 554 288 483 359 554 b 687 394 588 554 663 504 z m 554 778 l 753 778 l 753 960 l 554 960 z "},"ē":{"ha":953,"x_min":0,"x_max":0,"o":"m 492 -26 b 858 33 635 -26 744 -1 l 813 189 b 510 131 740 160 633 131 b 274 265 397 131 288 171 l 860 265 b 868 385 865 306 868 338 b 488 704 868 505 783 704 b 72 326 215 704 72 543 b 492 -26 72 88 238 -26 z m 273 394 b 488 554 288 483 359 554 b 687 394 588 554 663 504 z m 275 778 l 706 778 l 706 920 l 275 920 z "},"ĕ":{"ha":953,"x_min":0,"x_max":0,"o":"m 492 -26 b 858 33 635 -26 744 -1 l 813 189 b 510 131 740 160 633 131 b 274 265 397 131 288 171 l 860 265 b 868 385 865 306 868 338 b 488 704 868 505 783 704 b 72 326 215 704 72 543 b 492 -26 72 88 238 -26 z m 251 978 b 492 752 260 840 346 752 b 733 978 639 752 722 840 l 585 1001 b 492 879 572 894 528 879 b 400 1001 456 879 413 894 z m 273 394 b 488 554 288 483 359 554 b 687 394 588 554 663 504 z "},"ė":{"ha":953,"x_min":0,"x_max":0,"o":"m 394 960 l 394 778 l 593 778 l 593 960 z m 72 326 b 492 -26 72 88 238 -26 b 858 33 635 -26 744 -1 l 813 189 b 510 131 740 160 633 131 b 274 265 397 131 288 171 l 860 265 b 868 385 865 306 868 338 b 488 704 868 505 783 704 b 72 326 215 704 72 543 z m 273 394 b 488 554 288 483 359 554 b 687 394 588 554 663 504 z "},"ę":{"ha":1000,"x_min":0,"x_max":0,"o":"m 670 -290 b 866 -255 746 -290 835 -266 l 829 -133 b 690 -160 774 -150 726 -160 b 640 -121 662 -160 640 -151 b 858 33 640 -83 678 -38 l 813 189 b 510 131 740 160 633 131 b 274 265 397 131 288 171 l 860 265 b 868 385 865 306 868 338 b 488 704 868 505 783 704 b 72 326 215 704 72 543 b 492 -26 72 88 238 -26 l 520 -26 b 478 -131 493 -56 478 -90 b 670 -290 478 -234 555 -290 z m 273 394 b 488 554 288 483 359 554 b 687 394 588 554 663 504 z "},"ě":{"ha":953,"x_min":0,"x_max":0,"o":"m 492 -26 b 858 33 635 -26 744 -1 l 813 189 b 510 131 740 160 633 131 b 274 265 397 131 288 171 l 860 265 b 868 385 865 306 868 338 b 488 704 868 505 783 704 b 72 326 215 704 72 543 b 492 -26 72 88 238 -26 z m 260 963 l 399 778 l 559 778 l 709 964 l 606 1044 l 485 872 l 365 1041 z m 273 394 b 488 554 288 483 359 554 b 687 394 588 554 663 504 z "},"f":{"ha":752,"x_min":0,"x_max":0,"o":"m 201 521 l 201 0 l 394 0 l 394 521 l 732 521 l 732 674 l 394 674 l 394 747 b 530 859 394 823 437 859 b 735 822 594 859 660 844 l 777 973 b 507 1018 709 994 601 1018 b 201 761 350 1018 201 969 l 201 674 l 63 674 l 63 521 z "},"g":{"ha":1006,"x_min":0,"x_max":0,"o":"m 446 -290 b 891 29 726 -290 891 -174 l 891 674 l 741 674 l 721 627 b 464 703 654 670 570 703 b 83 347 251 703 83 590 b 445 16 83 121 236 16 b 698 88 552 16 637 51 l 698 33 b 449 -131 698 -64 606 -131 b 144 -69 324 -131 228 -106 l 92 -226 b 446 -290 178 -262 286 -290 z m 282 348 b 484 544 282 474 367 544 b 698 476 538 544 613 524 l 698 249 b 472 176 631 204 550 176 b 282 348 360 176 282 235 z "},"ĝ":{"ha":1006,"x_min":0,"x_max":0,"o":"m 298 831 l 401 751 l 522 923 l 642 753 l 747 832 l 608 1016 l 448 1016 z m 83 347 b 445 16 83 121 236 16 b 698 88 552 16 637 51 l 698 33 b 449 -131 698 -64 606 -131 b 144 -69 324 -131 228 -106 l 92 -226 b 446 -290 178 -262 286 -290 b 891 29 726 -290 891 -174 l 891 674 l 741 674 l 721 627 b 464 703 654 670 570 703 b 83 347 251 703 83 590 z m 282 348 b 484 544 282 474 367 544 b 698 476 538 544 613 524 l 698 249 b 472 176 631 204 550 176 b 282 348 360 176 282 235 z "},"ğ":{"ha":1006,"x_min":0,"x_max":0,"o":"m 446 -290 b 891 29 726 -290 891 -174 l 891 674 l 741 674 l 721 627 b 464 703 654 670 570 703 b 83 347 251 703 83 590 b 445 16 83 121 236 16 b 698 88 552 16 637 51 l 698 33 b 449 -131 698 -64 606 -131 b 144 -69 324 -131 228 -106 l 92 -226 b 446 -290 178 -262 286 -290 z m 281 978 b 522 752 290 840 376 752 b 763 978 669 752 751 840 l 615 1001 b 522 879 601 894 558 879 b 430 1001 486 879 443 894 z m 282 348 b 484 544 282 474 367 544 b 698 476 538 544 613 524 l 698 249 b 472 176 631 204 550 176 b 282 348 360 176 282 235 z "},"ġ":{"ha":1006,"x_min":0,"x_max":0,"o":"m 422 960 l 422 778 l 620 778 l 620 960 z m 83 347 b 445 16 83 121 236 16 b 698 88 552 16 637 51 l 698 33 b 449 -131 698 -64 606 -131 b 144 -69 324 -131 228 -106 l 92 -226 b 446 -290 178 -262 286 -290 b 891 29 726 -290 891 -174 l 891 674 l 741 674 l 721 627 b 464 703 654 670 570 703 b 83 347 251 703 83 590 z m 282 348 b 484 544 282 474 367 544 b 698 476 538 544 613 524 l 698 249 b 472 176 631 204 550 176 b 282 348 360 176 282 235 z "},"ģ":{"ha":1006,"x_min":0,"x_max":0,"o":"m 614 1085 l 533 1128 l 415 958 l 415 792 l 617 792 l 617 952 l 550 952 z m 83 347 b 445 16 83 121 236 16 b 698 88 552 16 637 51 l 698 33 b 449 -131 698 -64 606 -131 b 144 -69 324 -131 228 -106 l 92 -226 b 446 -290 178 -262 286 -290 b 891 29 726 -290 891 -174 l 891 674 l 741 674 l 721 627 b 464 703 654 670 570 703 b 83 347 251 703 83 590 z m 282 348 b 484 544 282 474 367 544 b 698 476 538 544 613 524 l 698 249 b 472 176 631 204 550 176 b 282 348 360 176 282 235 z "},"h":{"ha":1011,"x_min":0,"x_max":0,"o":"m 115 982 l 115 0 l 308 0 l 308 450 b 576 544 356 485 469 544 b 715 405 665 544 715 505 l 715 0 l 908 0 l 908 416 b 596 704 908 641 769 704 b 308 605 476 704 373 658 l 308 982 z "},"ĥ":{"ha":1011,"x_min":0,"x_max":0,"o":"m 283 1085 l 388 983 l 529 1113 l 672 983 l 778 1087 l 594 1232 l 467 1232 z m 115 0 l 308 0 l 308 450 b 576 544 356 485 469 544 b 715 405 665 544 715 505 l 715 0 l 908 0 l 908 416 b 596 704 908 641 769 704 b 308 605 476 704 373 658 l 308 982 l 115 982 z "},"i":{"ha":424,"x_min":0,"x_max":0,"o":"m 115 674 l 115 0 l 308 0 l 308 674 z m 115 778 l 308 778 l 308 960 l 115 960 z "},"ì":{"ha":424,"x_min":0,"x_max":0,"o":"m -11 961 l 208 752 l 313 845 l 102 1067 z m 115 0 l 308 0 l 308 674 l 115 674 z "},"í":{"ha":424,"x_min":0,"x_max":0,"o":"m 115 674 l 115 0 l 308 0 l 308 674 z m 116 847 l 219 752 l 438 961 l 324 1067 z "},"î":{"ha":424,"x_min":0,"x_max":0,"o":"m -17 831 l 85 751 l 206 923 l 326 753 l 431 832 l 292 1016 l 133 1016 z m 115 0 l 308 0 l 308 674 l 115 674 z "},"ï":{"ha":424,"x_min":0,"x_max":0,"o":"m -51 960 l -51 778 l 148 778 l 148 960 z m 115 0 l 308 0 l 308 674 l 115 674 z m 276 778 l 474 778 l 474 960 l 276 960 z "},"ĩ":{"ha":424,"x_min":0,"x_max":0,"o":"m 115 674 l 115 0 l 308 0 l 308 674 z m -68 800 l 46 757 b 115 835 56 808 86 835 b 206 800 151 835 171 822 b 306 767 235 781 267 767 b 490 944 374 767 453 788 l 371 981 b 299 901 346 919 331 901 b 223 935 272 901 249 918 b 113 971 189 956 156 971 b -68 800 29 971 -42 929 z "},"ī":{"ha":424,"x_min":0,"x_max":0,"o":"m 115 674 l 115 0 l 308 0 l 308 674 z m -3 778 l 427 778 l 427 920 l -3 920 z "},"ĭ":{"ha":424,"x_min":0,"x_max":0,"o":"m 115 674 l 115 0 l 308 0 l 308 674 z m -29 978 b 212 752 -20 840 65 752 b 453 978 358 752 441 840 l 304 1001 b 212 879 291 894 248 879 b 119 1001 176 879 133 894 z "},"į":{"ha":424,"x_min":0,"x_max":0,"o":"m 203 -290 b 406 -255 282 -290 374 -266 l 369 -133 b 224 -160 311 -150 262 -160 b 174 -117 196 -160 174 -148 b 308 0 174 -74 226 -31 l 308 674 l 115 674 l 115 14 b 11 -131 45 -26 11 -72 b 203 -290 11 -234 88 -290 z m 115 778 l 308 778 l 308 960 l 115 960 z "},"j":{"ha":477,"x_min":0,"x_max":0,"o":"m -11 -124 l 30 -290 b 362 -6 251 -249 362 -170 l 362 674 l 169 674 l 169 10 b -11 -124 169 -71 75 -98 z m 169 778 l 362 778 l 362 960 l 169 960 z "},"ĵ":{"ha":477,"x_min":0,"x_max":0,"o":"m 35 831 l 138 751 l 259 923 l 379 753 l 484 832 l 345 1016 l 185 1016 z m -10 -124 l 31 -290 b 363 -6 253 -249 363 -170 l 363 674 l 170 674 l 170 10 b -10 -124 170 -71 76 -98 z "},"k":{"ha":944,"x_min":0,"x_max":0,"o":"m 492 292 l 744 -37 l 891 67 l 634 405 l 853 573 l 744 708 l 308 367 l 308 982 l 115 982 l 115 0 l 308 0 l 308 148 z "},"ķ":{"ha":972,"x_min":0,"x_max":0,"o":"m 409 -395 l 490 -437 l 608 -267 l 608 -102 l 406 -102 l 406 -262 l 473 -262 z m 115 0 l 308 0 l 308 148 l 492 292 l 744 -37 l 891 67 l 634 405 l 853 573 l 744 708 l 308 367 l 308 982 l 115 982 z "},"l":{"ha":424,"x_min":0,"x_max":0,"o":"m 115 982 l 115 0 l 308 0 l 308 982 z "},"ĺ":{"ha":424,"x_min":0,"x_max":0,"o":"m 115 1150 l 189 1030 l 494 1185 l 417 1320 z m 115 0 l 308 0 l 308 982 l 115 982 z "},"ļ":{"ha":424,"x_min":0,"x_max":0,"o":"m 113 -395 l 194 -437 l 313 -267 l 313 -102 l 110 -102 l 110 -262 l 177 -262 z m 115 0 l 308 0 l 308 982 l 115 982 z "},"ľ":{"ha":592,"x_min":0,"x_max":0,"o":"m 431 1001 l 394 668 l 563 645 l 622 975 z m 115 0 l 308 0 l 308 982 l 115 982 z "},"m":{"ha":1494,"x_min":0,"x_max":0,"o":"m 115 674 l 115 0 l 308 0 l 308 451 b 563 545 353 485 461 545 b 687 405 642 545 687 506 l 687 0 l 880 0 l 880 490 b 1073 545 933 518 1004 545 b 1197 405 1153 545 1197 506 l 1197 0 l 1390 0 l 1390 416 b 1092 704 1390 641 1258 704 b 826 611 989 704 890 659 b 582 704 772 681 683 704 b 297 597 468 704 358 649 l 274 674 z "},"n":{"ha":1011,"x_min":0,"x_max":0,"o":"m 115 674 l 115 0 l 308 0 l 308 450 b 576 544 356 485 469 544 b 715 405 665 544 715 505 l 715 0 l 908 0 l 908 416 b 596 704 908 641 769 704 b 297 597 476 704 361 649 l 274 674 z "},"ñ":{"ha":1011,"x_min":0,"x_max":0,"o":"m 115 674 l 115 0 l 308 0 l 308 450 b 576 544 356 485 469 544 b 715 405 665 544 715 505 l 715 0 l 908 0 l 908 416 b 596 704 908 641 769 704 b 297 597 476 704 361 649 l 274 674 z m 258 800 l 372 757 b 442 835 382 808 413 835 b 532 800 477 835 497 822 b 632 767 562 781 593 767 b 816 944 700 767 780 788 l 697 981 b 625 901 672 919 658 901 b 549 935 598 901 576 918 b 439 971 515 956 483 971 b 258 800 356 971 284 929 z "},"ń":{"ha":1011,"x_min":0,"x_max":0,"o":"m 376 847 l 478 752 l 697 961 l 584 1067 z m 115 0 l 308 0 l 308 450 b 576 544 356 485 469 544 b 715 405 665 544 715 505 l 715 0 l 908 0 l 908 416 b 596 704 908 641 769 704 b 297 597 476 704 361 649 l 274 674 l 115 674 z "},"ņ":{"ha":1011,"x_min":0,"x_max":0,"o":"m 409 -395 l 490 -437 l 608 -267 l 608 -102 l 406 -102 l 406 -262 l 473 -262 z m 115 0 l 308 0 l 308 450 b 576 544 356 485 469 544 b 715 405 665 544 715 505 l 715 0 l 908 0 l 908 416 b 596 704 908 641 769 704 b 297 597 476 704 361 649 l 274 674 l 115 674 z "},"ň":{"ha":1011,"x_min":0,"x_max":0,"o":"m 319 963 l 458 778 l 617 778 l 767 964 l 665 1044 l 544 872 l 424 1041 z m 115 0 l 308 0 l 308 450 b 576 544 356 485 469 544 b 715 405 665 544 715 505 l 715 0 l 908 0 l 908 416 b 596 704 908 641 769 704 b 297 597 476 704 361 649 l 274 674 l 115 674 z "},"o":{"ha":1029,"x_min":0,"x_max":0,"o":"m 81 338 b 515 -26 81 102 263 -26 b 949 338 764 -26 949 102 b 515 704 949 576 750 704 b 81 338 279 704 81 576 z m 280 339 b 515 544 280 467 379 544 b 749 339 650 544 749 467 b 515 133 749 210 650 133 b 280 339 379 133 280 210 z "},"ò":{"ha":1029,"x_min":0,"x_max":0,"o":"m 330 961 l 549 752 l 654 845 l 443 1067 z m 81 338 b 515 -26 81 102 263 -26 b 949 338 764 -26 949 102 b 515 704 949 576 750 704 b 81 338 279 704 81 576 z m 280 339 b 515 544 280 467 379 544 b 749 339 650 544 749 467 b 515 133 749 210 650 133 b 280 339 379 133 280 210 z "},"ó":{"ha":1029,"x_min":0,"x_max":0,"o":"m 403 847 l 506 752 l 724 961 l 611 1067 z m 81 338 b 515 -26 81 102 263 -26 b 949 338 764 -26 949 102 b 515 704 949 576 750 704 b 81 338 279 704 81 576 z m 280 339 b 515 544 280 467 379 544 b 749 339 650 544 749 467 b 515 133 749 210 650 133 b 280 339 379 133 280 210 z "},"ô":{"ha":1029,"x_min":0,"x_max":0,"o":"m 289 831 l 392 751 l 513 923 l 633 753 l 738 832 l 599 1016 l 439 1016 z m 81 338 b 515 -26 81 102 263 -26 b 949 338 764 -26 949 102 b 515 704 949 576 750 704 b 81 338 279 704 81 576 z m 280 339 b 515 544 280 467 379 544 b 749 339 650 544 749 467 b 515 133 749 210 650 133 b 280 339 379 133 280 210 z "},"õ":{"ha":1029,"x_min":0,"x_max":0,"o":"m 81 338 b 515 -26 81 102 263 -26 b 949 338 764 -26 949 102 b 515 704 949 576 750 704 b 81 338 279 704 81 576 z m 228 800 l 342 757 b 411 835 351 808 382 835 b 501 800 447 835 467 822 b 601 767 531 781 563 767 b 785 944 669 767 749 788 l 667 981 b 594 901 642 919 627 901 b 519 935 567 901 545 918 b 408 971 485 956 452 971 b 228 800 325 971 253 929 z m 280 339 b 515 544 280 467 379 544 b 749 339 650 544 749 467 b 515 133 749 210 650 133 b 280 339 379 133 280 210 z "},"ö":{"ha":1029,"x_min":0,"x_max":0,"o":"m 251 960 l 251 778 l 449 778 l 449 960 z m 81 338 b 515 -26 81 102 263 -26 b 949 338 764 -26 949 102 b 515 704 949 576 750 704 b 81 338 279 704 81 576 z m 280 339 b 515 544 280 467 379 544 b 749 339 650 544 749 467 b 515 133 749 210 650 133 b 280 339 379 133 280 210 z m 577 778 l 776 778 l 776 960 l 577 960 z "},"ō":{"ha":1029,"x_min":0,"x_max":0,"o":"m 81 338 b 515 -26 81 102 263 -26 b 949 338 764 -26 949 102 b 515 704 949 576 750 704 b 81 338 279 704 81 576 z m 280 339 b 515 544 280 467 379 544 b 749 339 650 544 749 467 b 515 133 749 210 650 133 b 280 339 379 133 280 210 z m 299 778 l 729 778 l 729 920 l 299 920 z "},"ŏ":{"ha":1029,"x_min":0,"x_max":0,"o":"m 81 338 b 515 -26 81 102 263 -26 b 949 338 764 -26 949 102 b 515 704 949 576 750 704 b 81 338 279 704 81 576 z m 273 978 b 514 752 282 840 367 752 b 755 978 660 752 743 840 l 606 1001 b 514 879 593 894 550 879 b 422 1001 478 879 435 894 z m 280 339 b 515 544 280 467 379 544 b 749 339 650 544 749 467 b 515 133 749 210 650 133 b 280 339 379 133 280 210 z "},"ő":{"ha":1029,"x_min":0,"x_max":0,"o":"m 269 824 l 399 749 l 555 983 l 417 1073 z m 81 338 b 515 -26 81 102 263 -26 b 949 338 764 -26 949 102 b 515 704 949 576 750 704 b 81 338 279 704 81 576 z m 280 339 b 515 544 280 467 379 544 b 749 339 650 544 749 467 b 515 133 749 210 650 133 b 280 339 379 133 280 210 z m 583 840 l 702 752 l 887 967 l 760 1069 z "},"p":{"ha":1006,"x_min":0,"x_max":0,"o":"m 115 674 l 115 -274 l 308 -274 l 308 31 b 553 -26 374 -6 451 -26 b 925 344 751 -26 925 70 b 569 703 925 592 748 703 b 290 617 435 703 344 655 l 275 674 z m 308 208 l 308 476 b 531 543 375 517 457 543 b 726 331 669 543 726 456 b 533 133 726 214 663 133 b 308 208 456 133 372 163 z "},"q":{"ha":1004,"x_min":0,"x_max":0,"o":"m 696 81 l 696 -274 l 889 -274 l 889 674 l 740 674 l 719 627 b 470 703 654 671 574 703 b 81 347 255 703 81 590 b 450 8 81 121 240 8 b 696 81 553 8 635 43 z m 280 348 b 482 543 280 475 365 543 b 696 469 538 543 611 521 l 696 245 b 470 167 628 198 548 167 b 280 348 358 167 280 230 z "},"r":{"ha":663,"x_min":0,"x_max":0,"o":"m 115 0 l 308 0 l 308 422 b 643 519 417 485 516 516 l 626 703 b 297 569 494 703 390 652 l 270 674 l 115 674 z "},"ŕ":{"ha":667,"x_min":0,"x_max":0,"o":"m 115 0 l 308 0 l 308 422 b 643 519 417 485 516 516 l 626 703 b 297 569 494 703 390 652 l 270 674 l 115 674 z m 241 847 l 344 752 l 563 961 l 449 1067 z "},"ŗ":{"ha":667,"x_min":0,"x_max":0,"o":"m 114 -395 l 194 -437 l 313 -267 l 313 -102 l 111 -102 l 111 -262 l 178 -262 z m 115 0 l 308 0 l 308 422 b 643 519 417 485 516 516 l 626 703 b 297 569 494 703 390 652 l 270 674 l 115 674 z "},"ř":{"ha":667,"x_min":0,"x_max":0,"o":"m 115 0 l 308 0 l 308 422 b 643 519 417 485 516 516 l 626 703 b 297 569 494 703 390 652 l 270 674 l 115 674 z m 138 963 l 276 778 l 436 778 l 586 964 l 483 1044 l 363 872 l 242 1041 z "},"s":{"ha":874,"x_min":0,"x_max":0,"o":"m 115 191 l 65 38 b 416 -26 135 6 281 -26 b 807 220 658 -26 807 21 b 519 428 807 383 660 417 b 267 487 390 439 267 431 b 450 557 267 528 306 557 b 720 516 513 557 612 544 l 763 660 b 443 704 687 681 581 704 b 86 478 233 704 86 640 b 404 274 86 301 254 281 b 633 206 524 269 633 272 b 419 128 633 149 558 128 b 115 191 328 128 219 147 z "},"ś":{"ha":874,"x_min":0,"x_max":0,"o":"m 115 191 l 65 38 b 416 -26 135 6 281 -26 b 807 220 658 -26 807 21 b 519 428 807 383 660 417 b 267 487 390 439 267 431 b 450 557 267 528 306 557 b 720 516 513 557 612 544 l 763 660 b 443 704 687 681 581 704 b 86 478 233 704 86 640 b 404 274 86 301 254 281 b 633 206 524 269 633 272 b 419 128 633 149 558 128 b 115 191 328 128 219 147 z m 317 847 l 419 752 l 638 961 l 525 1067 z "},"ŝ":{"ha":874,"x_min":0,"x_max":0,"o":"m 115 191 l 65 38 b 416 -26 135 6 281 -26 b 807 220 658 -26 807 21 b 519 428 807 383 660 417 b 267 487 390 439 267 431 b 450 557 267 528 306 557 b 720 516 513 557 612 544 l 763 660 b 443 704 687 681 581 704 b 86 478 233 704 86 640 b 404 274 86 301 254 281 b 633 206 524 269 633 272 b 419 128 633 149 558 128 b 115 191 328 128 219 147 z m 205 831 l 308 751 l 428 923 l 549 753 l 653 832 l 515 1016 l 355 1016 z "},"ş":{"ha":874,"x_min":0,"x_max":0,"o":"m 115 191 l 65 38 b 333 -23 121 13 225 -13 b 473 -121 444 -64 473 -97 b 407 -162 473 -151 442 -162 b 275 -135 376 -162 328 -152 l 238 -255 b 427 -290 274 -268 347 -290 b 633 -131 551 -290 633 -234 b 583 -15 633 -88 618 -49 b 807 220 725 8 807 72 b 519 428 807 383 660 417 b 267 487 390 439 267 431 b 450 557 267 528 306 557 b 720 516 513 557 612 544 l 763 660 b 443 704 687 681 581 704 b 86 478 233 704 86 640 b 404 274 86 301 254 281 b 633 206 524 269 633 272 b 419 128 633 149 558 128 b 115 191 328 128 219 147 z "},"š":{"ha":874,"x_min":0,"x_max":0,"o":"m 115 191 l 65 38 b 416 -26 135 6 281 -26 b 807 220 658 -26 807 21 b 519 428 807 383 660 417 b 267 487 390 439 267 431 b 450 557 267 528 306 557 b 720 516 513 557 612 544 l 763 660 b 443 704 687 681 581 704 b 86 478 233 704 86 640 b 404 274 86 301 254 281 b 633 206 524 269 633 272 b 419 128 633 149 558 128 b 115 191 328 128 219 147 z m 206 963 l 345 778 l 505 778 l 655 964 l 552 1044 l 431 872 l 311 1041 z "},"ș":{"ha":874,"x_min":0,"x_max":0,"o":"m 344 -395 l 425 -437 l 544 -267 l 544 -102 l 342 -102 l 342 -262 l 408 -262 z m 65 38 b 416 -26 135 6 281 -26 b 807 220 658 -26 807 21 b 519 428 807 383 660 417 b 267 487 390 439 267 431 b 450 557 267 528 306 557 b 720 516 513 557 612 544 l 763 660 b 443 704 687 681 581 704 b 86 478 233 704 86 640 b 404 274 86 301 254 281 b 633 206 524 269 633 272 b 419 128 633 149 558 128 b 115 191 328 128 219 147 z "},"t":{"ha":825,"x_min":0,"x_max":0,"o":"m 215 201 b 487 -26 215 19 326 -26 b 771 27 623 -26 771 27 l 737 177 b 520 133 737 177 608 133 b 408 224 441 133 408 151 l 408 515 l 736 515 l 736 674 l 408 674 l 408 856 l 215 856 l 215 674 l 63 674 l 63 515 l 215 515 z "},"ţ":{"ha":825,"x_min":0,"x_max":0,"o":"m 347 -395 l 427 -437 l 546 -267 l 546 -102 l 344 -102 l 344 -262 l 410 -262 z m 63 515 l 215 515 l 215 201 b 487 -26 215 19 326 -26 b 771 27 623 -26 771 27 l 737 177 b 520 133 737 177 608 133 b 408 224 441 133 408 151 l 408 515 l 736 515 l 736 674 l 408 674 l 408 856 l 215 856 l 215 674 l 63 674 z "},"ť":{"ha":825,"x_min":0,"x_max":0,"o":"m 506 1106 l 469 773 l 638 750 l 697 1080 z m 63 515 l 215 515 l 215 201 b 487 -26 215 19 326 -26 b 771 27 623 -26 771 27 l 737 177 b 520 133 737 177 608 133 b 408 224 441 133 408 151 l 408 515 l 736 515 l 736 674 l 408 674 l 408 856 l 215 856 l 215 674 l 63 674 z "},"ț":{"ha":825,"x_min":0,"x_max":0,"o":"m 360 -395 l 441 -437 l 560 -267 l 560 -102 l 358 -102 l 358 -262 l 424 -262 z m 63 515 l 215 515 l 215 201 b 487 -26 215 19 326 -26 b 771 27 623 -26 771 27 l 737 177 b 520 133 737 177 608 133 b 408 224 441 133 408 151 l 408 515 l 736 515 l 736 674 l 408 674 l 408 856 l 215 856 l 215 674 l 63 674 z "},"u":{"ha":1015,"x_min":0,"x_max":0,"o":"m 103 298 b 406 -26 103 38 249 -26 b 725 81 538 -26 639 13 l 747 0 l 899 0 l 899 674 l 706 674 l 706 233 b 456 132 652 185 569 132 b 297 338 349 132 297 169 l 297 674 l 103 674 z "},"ù":{"ha":1015,"x_min":0,"x_max":0,"o":"m 300 961 l 519 752 l 624 845 l 413 1067 z m 103 298 b 406 -26 103 38 249 -26 b 725 81 538 -26 639 13 l 747 0 l 899 0 l 899 674 l 706 674 l 706 233 b 456 132 652 185 569 132 b 297 338 349 132 297 169 l 297 674 l 103 674 z "},"ú":{"ha":1015,"x_min":0,"x_max":0,"o":"m 103 298 b 406 -26 103 38 249 -26 b 725 81 538 -26 639 13 l 747 0 l 899 0 l 899 674 l 706 674 l 706 233 b 456 132 652 185 569 132 b 297 338 349 132 297 169 l 297 674 l 103 674 z m 380 847 l 483 752 l 701 961 l 588 1067 z "},"û":{"ha":1015,"x_min":0,"x_max":0,"o":"m 275 831 l 378 751 l 499 923 l 619 753 l 724 832 l 585 1016 l 425 1016 z m 103 298 b 406 -26 103 38 249 -26 b 725 81 538 -26 639 13 l 747 0 l 899 0 l 899 674 l 706 674 l 706 233 b 456 132 652 185 569 132 b 297 338 349 132 297 169 l 297 674 l 103 674 z "},"ü":{"ha":1015,"x_min":0,"x_max":0,"o":"m 237 960 l 237 778 l 435 778 l 435 960 z m 103 298 b 406 -26 103 38 249 -26 b 725 81 538 -26 639 13 l 747 0 l 899 0 l 899 674 l 706 674 l 706 233 b 456 132 652 185 569 132 b 297 338 349 132 297 169 l 297 674 l 103 674 z m 563 778 l 762 778 l 762 960 l 563 960 z "},"ũ":{"ha":1015,"x_min":0,"x_max":0,"o":"m 103 298 b 406 -26 103 38 249 -26 b 725 81 538 -26 639 13 l 747 0 l 899 0 l 899 674 l 706 674 l 706 233 b 456 132 652 185 569 132 b 297 338 349 132 297 169 l 297 674 l 103 674 z m 219 800 l 333 757 b 402 835 342 808 373 835 b 492 800 438 835 458 822 b 592 767 522 781 553 767 b 776 944 660 767 740 788 l 658 981 b 585 901 633 919 618 901 b 510 935 558 901 536 918 b 399 971 476 956 443 971 b 219 800 316 971 244 929 z "},"ū":{"ha":1015,"x_min":0,"x_max":0,"o":"m 103 298 b 406 -26 103 38 249 -26 b 725 81 538 -26 639 13 l 747 0 l 899 0 l 899 674 l 706 674 l 706 233 b 456 132 652 185 569 132 b 297 338 349 132 297 169 l 297 674 l 103 674 z m 288 778 l 718 778 l 718 920 l 288 920 z "},"ŭ":{"ha":1015,"x_min":0,"x_max":0,"o":"m 103 298 b 406 -26 103 38 249 -26 b 725 81 538 -26 639 13 l 747 0 l 899 0 l 899 674 l 706 674 l 706 233 b 456 132 652 185 569 132 b 297 338 349 132 297 169 l 297 674 l 103 674 z m 262 978 b 503 752 271 840 356 752 b 744 978 649 752 732 840 l 595 1001 b 503 879 582 894 539 879 b 410 1001 467 879 424 894 z "},"ů":{"ha":1015,"x_min":0,"x_max":0,"o":"m 103 298 b 406 -26 103 38 249 -26 b 725 81 538 -26 639 13 l 747 0 l 899 0 l 899 674 l 706 674 l 706 233 b 456 132 652 185 569 132 b 297 338 349 132 297 169 l 297 674 l 103 674 z m 317 905 b 495 752 317 819 379 752 b 674 905 605 752 674 819 b 495 1057 674 992 603 1057 b 317 905 386 1057 317 992 z m 426 905 b 495 965 426 944 451 965 b 563 905 539 965 563 944 b 495 846 563 866 537 846 b 426 905 451 846 426 866 z "},"ű":{"ha":1015,"x_min":0,"x_max":0,"o":"m 103 298 b 406 -26 103 38 249 -26 b 725 81 538 -26 639 13 l 747 0 l 899 0 l 899 674 l 706 674 l 706 233 b 456 132 652 185 569 132 b 297 338 349 132 297 169 l 297 674 l 103 674 z m 239 824 l 368 749 l 524 983 l 386 1073 z m 553 840 l 672 752 l 856 967 l 729 1069 z "},"ų":{"ha":1015,"x_min":0,"x_max":0,"o":"m 631 -142 b 821 -290 631 -233 708 -290 b 985 -255 885 -290 960 -266 l 948 -133 b 844 -160 906 -150 869 -160 b 794 -121 815 -160 794 -153 b 899 0 794 -91 815 -52 l 899 674 l 706 674 l 706 233 b 456 132 652 185 569 132 b 297 338 349 132 297 169 l 297 674 l 103 674 l 103 298 b 406 -26 103 38 249 -26 b 725 81 538 -26 639 13 l 738 33 b 631 -142 676 -11 631 -67 z "},"v":{"ha":846,"x_min":0,"x_max":0,"o":"m 7 636 l 303 0 l 540 0 l 842 641 l 678 716 l 428 163 l 181 716 z "},"w":{"ha":1214,"x_min":0,"x_max":0,"o":"m 10 660 l 246 0 l 481 0 l 607 495 l 736 0 l 976 0 l 1203 673 l 1044 717 l 867 153 l 727 674 l 495 674 l 364 169 l 181 717 z "},"ŵ":{"ha":1214,"x_min":0,"x_max":0,"o":"m 385 831 l 488 751 l 609 923 l 729 753 l 834 832 l 695 1016 l 535 1016 z m 10 660 l 246 0 l 481 0 l 607 495 l 736 0 l 976 0 l 1203 673 l 1044 717 l 867 153 l 727 674 l 495 674 l 364 169 l 181 717 z "},"ẁ":{"ha":1214,"x_min":0,"x_max":0,"o":"m 402 961 l 621 752 l 726 845 l 515 1067 z m 10 660 l 246 0 l 481 0 l 607 495 l 736 0 l 976 0 l 1203 673 l 1044 717 l 867 153 l 727 674 l 495 674 l 364 169 l 181 717 z "},"ẃ":{"ha":1214,"x_min":0,"x_max":0,"o":"m 508 847 l 611 752 l 830 961 l 717 1067 z m 10 660 l 246 0 l 481 0 l 607 495 l 736 0 l 976 0 l 1203 673 l 1044 717 l 867 153 l 727 674 l 495 674 l 364 169 l 181 717 z "},"ẅ":{"ha":1214,"x_min":0,"x_max":0,"o":"m 353 960 l 353 778 l 551 778 l 551 960 z m 10 660 l 246 0 l 481 0 l 607 495 l 736 0 l 976 0 l 1203 673 l 1044 717 l 867 153 l 727 674 l 495 674 l 364 169 l 181 717 z m 679 778 l 878 778 l 878 960 l 679 960 z "},"x":{"ha":878,"x_min":0,"x_max":0,"o":"m 42 81 l 158 -37 l 433 236 l 731 -37 l 849 90 l 558 352 l 822 601 l 710 718 l 440 451 l 160 718 l 37 589 l 311 338 z "},"y":{"ha":883,"x_min":0,"x_max":0,"o":"m 426 -290 l 878 640 l 717 718 l 463 184 l 198 718 l 28 634 l 363 -15 l 265 -211 z "},"ý":{"ha":883,"x_min":0,"x_max":0,"o":"m 426 -290 l 878 640 l 717 718 l 463 184 l 198 718 l 28 634 l 363 -15 l 265 -211 z m 356 847 l 459 752 l 678 961 l 565 1067 z "},"ÿ":{"ha":883,"x_min":0,"x_max":0,"o":"m 426 -290 l 878 640 l 717 718 l 463 184 l 198 718 l 28 634 l 363 -15 l 265 -211 z m 185 778 l 383 778 l 383 960 l 185 960 z m 511 778 l 710 778 l 710 960 l 511 960 z "},"ŷ":{"ha":883,"x_min":0,"x_max":0,"o":"m 426 -290 l 878 640 l 717 718 l 463 184 l 198 718 l 28 634 l 363 -15 l 265 -211 z m 237 831 l 340 751 l 460 923 l 581 753 l 685 832 l 547 1016 l 387 1016 z "},"z":{"ha":905,"x_min":0,"x_max":0,"o":"m 74 174 l 74 0 l 849 0 l 849 160 l 323 160 l 815 507 l 815 674 l 103 674 l 103 515 l 563 515 z "},"ź":{"ha":905,"x_min":0,"x_max":0,"o":"m 74 174 l 74 0 l 849 0 l 849 160 l 323 160 l 815 507 l 815 674 l 103 674 l 103 515 l 563 515 z m 336 847 l 439 752 l 658 961 l 544 1067 z "},"ż":{"ha":905,"x_min":0,"x_max":0,"o":"m 387 960 l 387 778 l 585 778 l 585 960 z m 74 0 l 849 0 l 849 160 l 323 160 l 815 507 l 815 674 l 103 674 l 103 515 l 563 515 l 74 174 z "},"ž":{"ha":905,"x_min":0,"x_max":0,"o":"m 74 174 l 74 0 l 849 0 l 849 160 l 323 160 l 815 507 l 815 674 l 103 674 l 103 515 l 563 515 z m 265 963 l 404 778 l 564 778 l 714 964 l 611 1044 l 490 872 l 370 1041 z "},"ª":{"ha":656,"x_min":0,"x_max":0,"o":"m 83 561 b 254 423 83 449 176 423 b 448 483 325 423 399 448 l 465 432 l 582 432 l 582 704 b 340 897 582 844 484 897 b 123 857 238 897 160 871 l 156 752 b 339 786 197 769 269 786 b 438 713 398 786 431 767 b 351 717 408 716 378 717 b 83 561 182 717 83 664 z m 233 565 b 391 631 233 604 264 631 b 440 629 406 631 422 630 l 440 583 b 281 532 397 556 342 532 b 233 565 254 532 233 542 z "},"º":{"ha":658,"x_min":0,"x_max":0,"o":"m 58 652 b 328 419 58 500 176 419 b 600 652 480 419 600 500 b 328 886 600 805 481 886 b 58 652 177 886 58 805 z m 207 653 b 328 772 207 735 258 772 b 451 653 399 772 451 735 b 328 535 451 572 399 535 b 207 653 258 535 207 572 z "},"ß":{"ha":1065,"x_min":0,"x_max":0,"o":"m 652 -26 b 997 276 878 -26 997 54 b 781 517 997 431 911 512 b 926 725 883 547 926 615 b 540 1020 926 943 749 1020 b 126 672 337 1020 126 956 l 126 0 l 319 0 l 319 653 b 547 860 319 824 401 860 b 726 727 658 860 726 815 b 594 567 726 641 701 567 l 483 567 l 483 414 l 597 414 b 797 269 743 414 797 374 b 649 132 797 171 745 132 b 449 159 577 132 506 143 l 425 4 b 652 -26 481 -13 558 -26 z "},"æ":{"ha":1512,"x_min":0,"x_max":0,"o":"m 1079 -26 b 1438 39 1188 -26 1312 -6 l 1392 186 b 1095 126 1310 157 1183 126 b 862 269 948 126 880 170 l 1432 269 b 1440 358 1437 304 1440 326 b 1067 704 1440 494 1369 704 b 796 604 945 704 856 665 b 494 704 734 681 626 704 b 155 649 357 704 219 672 l 194 505 b 488 551 261 525 373 551 b 695 415 627 551 685 515 b 472 432 617 426 542 432 b 96 194 257 432 96 372 b 374 -26 96 37 214 -26 b 765 89 517 -26 638 10 b 1079 -26 831 14 937 -26 z m 292 202 b 538 299 292 273 390 299 b 693 291 585 299 637 297 b 702 218 694 265 697 241 b 401 127 585 156 488 127 b 292 202 333 127 292 157 z m 860 388 b 1071 555 878 499 953 555 b 1264 388 1207 555 1252 472 z "},"ǽ":{"ha":1523,"x_min":0,"x_max":0,"o":"m 1079 -26 b 1438 39 1188 -26 1312 -6 l 1392 186 b 1095 126 1310 157 1183 126 b 862 269 948 126 880 170 l 1432 269 b 1440 358 1437 304 1440 326 b 1067 704 1440 494 1369 704 b 796 604 945 704 856 665 b 494 704 734 681 626 704 b 155 649 357 704 219 672 l 194 505 b 488 551 261 525 373 551 b 695 415 627 551 685 515 b 472 432 617 426 542 432 b 96 194 257 432 96 372 b 374 -26 96 37 214 -26 b 765 89 517 -26 638 10 b 1079 -26 831 14 937 -26 z m 292 202 b 538 299 292 273 390 299 b 693 291 585 299 637 297 b 702 218 694 265 697 241 b 401 127 585 156 488 127 b 292 202 333 127 292 157 z m 696 847 l 799 752 l 1017 961 l 904 1067 z m 860 388 b 1071 555 878 499 953 555 b 1264 388 1207 555 1252 472 z "},"ð":{"ha":999,"x_min":0,"x_max":0,"o":"m 469 -19 b 927 408 746 -19 927 128 b 668 904 927 638 831 807 l 721 995 l 606 1056 l 549 958 b 288 1001 471 985 383 999 l 264 859 b 466 817 338 852 406 838 l 422 742 l 538 681 l 583 760 b 740 500 673 700 729 614 b 435 638 686 587 588 638 b 72 314 219 638 72 523 b 469 -19 72 63 276 -19 z m 271 310 b 454 478 271 419 346 478 b 727 318 576 478 658 430 b 474 142 703 192 589 142 b 271 310 356 142 271 202 z "},"ø":{"ha":1028,"x_min":0,"x_max":0,"o":"m 64 55 l 153 -40 l 246 38 b 514 -26 318 -5 410 -26 b 948 338 763 -26 948 102 b 869 563 948 430 919 505 l 930 614 l 844 714 l 765 647 b 514 704 693 685 606 704 b 80 338 278 704 80 576 b 147 125 80 253 104 181 z m 279 339 b 514 544 279 467 378 544 b 622 526 553 544 590 538 l 297 252 b 279 339 285 277 279 306 z m 390 159 l 724 440 b 749 339 740 411 749 378 b 514 133 749 210 649 133 b 390 159 467 133 426 142 z "},"ǿ":{"ha":1028,"x_min":0,"x_max":0,"o":"m 82 55 l 172 -40 l 257 31 b 514 -26 327 -7 415 -26 b 948 338 763 -26 948 102 b 876 553 948 425 922 497 l 948 614 l 863 714 l 775 640 b 514 704 702 683 611 704 b 80 338 278 704 80 576 b 153 115 80 248 107 173 z m 279 339 b 514 544 279 467 378 544 b 633 520 558 544 599 536 l 303 241 b 279 339 288 269 279 302 z m 402 154 l 729 429 b 749 339 742 403 749 373 b 514 133 749 210 649 133 b 402 154 473 133 435 140 z m 406 847 l 508 752 l 727 961 l 614 1067 z "},"þ":{"ha":1008,"x_min":0,"x_max":0,"o":"m 126 -274 l 319 -274 l 319 31 b 564 -26 385 -6 463 -26 b 936 344 763 -26 936 70 b 581 703 936 592 759 703 b 319 629 460 703 375 665 l 319 982 l 126 982 z m 319 206 l 319 477 b 542 543 386 518 468 543 b 737 331 680 543 737 456 b 544 133 737 213 674 133 b 319 206 467 133 383 160 z "},"đ":{"ha":1006,"x_min":0,"x_max":0,"o":"m 530 904 l 530 769 l 697 769 l 697 650 b 470 703 636 681 563 703 b 81 333 255 703 81 585 b 456 -26 81 92 238 -26 b 719 68 568 -26 656 21 l 741 0 l 890 0 l 890 769 l 1023 769 l 1023 904 l 890 904 l 890 982 l 697 982 l 697 904 z m 280 334 b 482 543 280 469 365 543 b 697 479 538 543 612 524 l 697 211 b 481 133 630 163 550 133 b 280 334 358 133 280 199 z "},"ħ":{"ha":1011,"x_min":0,"x_max":0,"o":"m -17 904 l -17 769 l 115 769 l 115 0 l 308 0 l 308 450 b 576 544 356 485 469 544 b 715 405 665 544 715 505 l 715 0 l 908 0 l 908 416 b 596 704 908 641 769 704 b 308 605 476 704 373 658 l 308 769 l 476 769 l 476 904 l 308 904 l 308 982 l 115 982 l 115 904 z "},"ı":{"ha":424,"x_min":0,"x_max":0,"o":"m 115 674 l 115 0 l 308 0 l 308 674 z "},"ĳ":{"ha":900,"x_min":0,"x_max":0,"o":"m 164 674 l 164 0 l 357 0 l 357 674 z m 164 778 l 357 778 l 357 960 l 164 960 z m 412 -124 l 453 -290 b 785 -6 674 -249 785 -170 l 785 674 l 592 674 l 592 10 b 412 -124 592 -71 498 -98 z m 592 778 l 785 778 l 785 960 l 592 960 z "},"ĸ":{"ha":972,"x_min":0,"x_max":0,"o":"m 513 305 l 772 -37 l 919 67 l 655 417 l 880 593 l 781 717 l 308 344 l 308 674 l 115 674 l 115 0 l 308 0 l 308 148 z "},"ŀ":{"ha":497,"x_min":0,"x_max":0,"o":"m 115 982 l 115 0 l 308 0 l 308 982 z m 359 435 l 561 435 l 561 631 l 359 631 z "},"ł":{"ha":572,"x_min":0,"x_max":0,"o":"m -23 405 l 35 278 l 178 346 l 178 0 l 372 0 l 372 437 l 581 535 l 523 662 l 372 590 l 372 982 l 178 982 l 178 500 z "},"ŉ":{"ha":1011,"x_min":0,"x_max":0,"o":"m -103 750 l -23 708 l 96 878 l 96 1043 l -106 1043 l -106 883 l -40 883 z m 115 0 l 308 0 l 308 450 b 576 544 356 485 469 544 b 715 405 665 544 715 505 l 715 0 l 908 0 l 908 416 b 596 704 908 641 769 704 b 297 597 476 704 361 649 l 274 674 l 115 674 z "},"ŋ":{"ha":1011,"x_min":0,"x_max":0,"o":"m 535 -133 l 576 -290 b 908 -6 797 -249 908 -170 l 908 416 b 596 704 908 641 769 704 b 297 597 476 704 361 649 l 274 674 l 115 674 l 115 0 l 308 0 l 308 453 b 576 548 356 488 469 548 b 715 405 665 548 715 508 l 715 10 b 535 -133 715 -76 621 -105 z "},"œ":{"ha":1590,"x_min":0,"x_max":0,"o":"m 486 -26 b 821 103 627 -26 747 18 b 1156 -26 889 17 1006 -26 b 1515 39 1272 -26 1391 -6 l 1471 185 b 1178 131 1390 156 1265 131 b 926 257 1012 131 944 181 l 1510 257 b 1517 358 1515 298 1517 322 b 1154 704 1517 494 1449 704 b 830 566 1007 704 897 651 b 490 704 758 656 639 704 b 72 338 264 704 72 577 b 486 -26 72 101 224 -26 z m 271 339 b 497 544 271 465 369 544 b 744 339 638 544 744 465 b 497 133 744 213 638 133 b 271 339 353 133 271 213 z m 924 388 b 1156 552 940 474 1011 552 b 1346 388 1289 552 1334 469 z "},"ŧ":{"ha":825,"x_min":0,"x_max":0,"o":"m 61 428 l 61 289 l 215 289 l 215 201 b 487 -26 215 19 326 -26 b 771 27 623 -26 771 27 l 737 177 b 520 133 737 177 608 133 b 408 224 441 133 408 151 l 408 289 l 734 289 l 734 428 l 408 428 l 408 515 l 736 515 l 736 674 l 408 674 l 408 856 l 215 856 l 215 674 l 63 674 l 63 515 l 215 515 l 215 428 z "},"ſ":{"ha":697,"x_min":0,"x_max":0,"o":"m 201 521 l 201 0 l 394 0 l 394 747 b 530 859 394 823 437 859 b 735 822 594 859 660 844 l 777 973 b 507 1018 709 994 601 1018 b 201 761 350 1018 201 969 l 201 674 l 63 674 l 63 521 z "},"ȷ":{"ha":490,"x_min":0,"x_max":0,"o":"m -10 -124 l 31 -290 b 363 -6 253 -249 363 -170 l 363 674 l 170 674 l 170 10 b -10 -124 170 -71 76 -98 z "},"π":{"ha":1229,"x_min":0,"x_max":0,"o":"m 733 201 b 958 -21 733 24 830 -21 b 1175 22 1068 -21 1175 22 l 1140 165 b 993 137 1140 165 1040 137 b 925 222 950 137 925 153 l 925 521 l 1149 521 l 1149 674 l 58 674 l 58 521 l 258 521 l 258 1 l 451 1 l 451 521 l 733 521 z "},"¼":{"ha":1830,"x_min":0,"x_max":0,"o":"m 131 497 l 131 361 l 689 361 l 689 497 l 510 497 l 510 899 l 401 899 l 149 838 l 172 709 l 352 745 l 352 497 z m 579 8 l 699 -78 l 1434 817 l 1317 906 z m 1140 113 l 1515 113 l 1515 7 l 1660 7 l 1660 113 l 1759 113 l 1759 235 l 1660 235 l 1660 544 l 1469 544 l 1140 255 z m 1299 235 l 1515 422 l 1515 235 z "},"½":{"ha":1894,"x_min":0,"x_max":0,"o":"m 131 497 l 131 361 l 689 361 l 689 497 l 510 497 l 510 899 l 401 899 l 149 838 l 172 709 l 352 745 l 352 497 z m 579 8 l 699 -78 l 1434 817 l 1317 906 z m 1239 7 l 1808 7 l 1808 142 l 1401 142 l 1401 145 b 1510 202 1401 162 1429 176 l 1607 234 b 1794 401 1749 281 1794 319 b 1550 565 1794 510 1719 565 b 1256 501 1439 565 1331 534 l 1297 382 b 1550 434 1361 409 1442 434 b 1628 401 1612 434 1628 417 b 1551 347 1628 381 1614 368 l 1433 306 b 1239 110 1297 260 1239 206 z "},"¾":{"ha":1793,"x_min":0,"x_max":0,"o":"m 356 340 b 672 527 544 340 672 381 b 558 668 672 581 638 649 b 645 770 607 680 645 719 b 384 919 645 885 524 919 b 115 868 287 919 174 890 l 147 749 b 378 794 219 775 310 794 b 461 749 438 794 461 774 b 396 698 461 717 447 698 l 238 698 l 238 578 l 408 578 b 489 527 461 578 489 563 b 367 467 489 487 455 467 b 131 502 272 467 176 487 l 98 377 b 356 340 176 352 276 340 z m 536 13 l 656 -74 l 1391 822 l 1274 911 z m 1104 113 l 1479 113 l 1479 7 l 1624 7 l 1624 113 l 1723 113 l 1723 235 l 1624 235 l 1624 544 l 1433 544 l 1104 255 z m 1263 235 l 1479 422 l 1479 235 z "},"_":{"ha":984,"x_min":0,"x_max":0,"o":"m 34 -69 l 34 -224 l 950 -224 l 950 -69 z "},"-":{"ha":542,"x_min":0,"x_max":0,"o":"m 34 442 l 34 280 l 508 280 l 508 442 z "},"–":{"ha":844,"x_min":0,"x_max":0,"o":"m 34 442 l 34 294 l 810 294 l 810 442 z "},"—":{"ha":1215,"x_min":0,"x_max":0,"o":"m 34 442 l 34 303 l 1181 303 l 1181 442 z "},"(":{"ha":499,"x_min":0,"x_max":0,"o":"m 320 -131 l 465 -28 b 287 453 383 94 287 238 b 465 915 287 664 380 804 l 327 1019 b 94 453 208 890 94 738 b 320 -131 94 168 226 -15 z "},")":{"ha":501,"x_min":0,"x_max":0,"o":"m 37 -28 l 181 -131 b 407 453 275 -15 407 168 b 174 1019 407 738 294 890 l 37 915 b 215 453 122 804 215 664 b 37 -28 215 238 118 94 z "},"[":{"ha":555,"x_min":0,"x_max":0,"o":"m 126 1028 l 126 -131 l 492 -131 l 492 23 l 316 23 l 316 875 l 492 875 l 492 1028 z "},"]":{"ha":555,"x_min":0,"x_max":0,"o":"m 428 1028 l 63 1028 l 63 875 l 239 875 l 239 23 l 63 23 l 63 -131 l 428 -131 z "},"{":{"ha":635,"x_min":0,"x_max":0,"o":"m 572 -124 l 572 16 b 396 106 433 16 396 35 l 396 303 b 292 446 396 378 360 422 b 396 573 356 465 396 496 l 396 777 b 572 866 396 847 433 866 l 572 1006 b 206 794 392 1006 206 1004 l 206 576 b 86 503 206 529 156 509 l 86 369 b 206 294 166 365 206 352 l 206 88 b 572 -124 206 -78 297 -124 z "},"}":{"ha":635,"x_min":0,"x_max":0,"o":"m 63 16 l 63 -124 b 428 88 242 -124 428 -125 l 428 294 b 549 369 428 352 469 365 l 549 503 b 428 576 479 509 428 529 l 428 794 b 63 1006 428 1004 242 1006 l 63 866 b 239 777 201 866 239 847 l 239 564 b 343 437 239 487 283 453 b 239 294 271 415 239 369 l 239 106 b 63 16 239 35 201 16 z "},"#":{"ha":1131,"x_min":0,"x_max":0,"o":"m 191 7 l 363 -26 l 420 224 l 617 224 l 568 7 l 740 -26 l 797 224 l 1040 224 l 1039 368 l 830 368 l 874 558 l 1100 558 l 1099 703 l 906 703 l 949 890 l 772 919 l 724 703 l 529 703 l 572 890 l 394 919 l 347 703 l 103 703 l 103 558 l 314 558 l 272 368 l 43 368 l 43 224 l 240 224 z m 453 368 l 497 558 l 691 558 l 649 368 z "},"%":{"ha":1316,"x_min":0,"x_max":0,"o":"m 44 644 b 301 411 44 483 171 411 b 564 645 434 411 564 481 b 306 879 564 808 435 879 b 44 644 178 879 44 812 z m 197 644 b 304 750 197 719 242 750 b 410 644 363 750 410 719 b 303 540 410 571 365 540 b 197 644 244 540 197 571 z m 266 67 l 378 -26 l 1053 794 l 941 885 z m 752 206 b 1009 -26 752 45 878 -26 b 1272 208 1142 -26 1272 43 b 1013 442 1272 371 1142 442 b 752 206 886 442 752 374 z m 905 207 b 1012 313 905 281 950 313 b 1118 207 1071 313 1118 281 b 1011 102 1118 133 1073 102 b 905 207 952 102 905 133 z "},"‰":{"ha":1908,"x_min":0,"x_max":0,"o":"m 44 644 b 301 411 44 483 171 411 b 564 645 434 411 564 481 b 306 879 564 808 435 879 b 44 644 178 879 44 812 z m 197 644 b 304 750 197 719 242 750 b 410 644 363 750 410 719 b 303 540 410 571 365 540 b 197 644 244 540 197 571 z m 266 67 l 378 -26 l 1053 794 l 941 885 z m 752 206 b 1009 -26 752 45 878 -26 b 1272 208 1142 -26 1272 43 b 1013 442 1272 371 1142 442 b 752 206 886 442 752 374 z m 905 207 b 1012 313 905 281 950 313 b 1118 207 1071 313 1118 281 b 1011 102 1118 133 1073 102 b 905 207 952 102 905 133 z m 1344 206 b 1601 -26 1344 45 1470 -26 b 1863 208 1733 -26 1863 43 b 1605 442 1863 371 1734 442 b 1344 206 1478 442 1344 374 z m 1497 207 b 1603 313 1497 281 1542 313 b 1710 207 1663 313 1710 281 b 1603 102 1710 133 1665 102 b 1497 207 1544 102 1497 133 z "},"'":{"ha":316,"x_min":0,"x_max":0,"o":"m 72 896 l 93 565 l 224 565 l 244 896 z "},"\"":{"ha":549,"x_min":0,"x_max":0,"o":"m 305 896 l 326 565 l 457 565 l 478 896 z m 72 896 l 93 565 l 224 565 l 244 896 z "},"‘":{"ha":340,"x_min":0,"x_max":0,"o":"m 276 869 l 189 915 l 74 733 l 74 577 l 276 577 l 276 731 l 210 731 z "},"’":{"ha":340,"x_min":0,"x_max":0,"o":"m 78 604 l 165 558 l 280 740 l 280 897 l 78 897 l 78 743 l 144 743 z "},"“":{"ha":595,"x_min":0,"x_max":0,"o":"m 528 866 l 441 912 l 326 730 l 326 574 l 528 574 l 528 727 l 462 727 z m 71 574 l 273 574 l 273 727 l 206 727 l 272 866 l 185 912 l 71 730 z "},"”":{"ha":595,"x_min":0,"x_max":0,"o":"m 78 604 l 165 558 l 279 740 l 279 897 l 77 897 l 77 743 l 144 743 z m 333 743 l 399 743 l 333 604 l 420 558 l 535 740 l 535 897 l 333 897 z "},"‚":{"ha":340,"x_min":0,"x_max":0,"o":"m 76 -172 l 163 -217 l 278 -35 l 278 121 l 76 121 l 76 -33 l 142 -33 z "},"„":{"ha":585,"x_min":0,"x_max":0,"o":"m 76 -149 l 163 -195 l 277 -13 l 277 143 l 75 143 l 75 -10 l 142 -10 z m 331 -10 l 397 -10 l 331 -149 l 418 -195 l 533 -13 l 533 143 l 331 143 z "},"‹":{"ha":531,"x_min":0,"x_max":0,"o":"m 46 338 l 351 -40 l 497 75 l 272 346 l 478 592 l 332 704 z "},"›":{"ha":531,"x_min":0,"x_max":0,"o":"m 485 344 l 180 722 l 34 606 l 259 335 l 53 89 l 199 -23 z "},"«":{"ha":920,"x_min":0,"x_max":0,"o":"m 46 338 l 342 -40 l 488 74 l 272 346 l 460 585 l 321 704 z m 435 338 l 740 -40 l 886 75 l 662 346 l 858 585 l 718 703 z "},"»":{"ha":920,"x_min":0,"x_max":0,"o":"m 874 356 l 599 722 l 460 603 l 649 364 l 432 92 l 578 -22 z m 34 93 l 180 -22 l 485 356 l 202 722 l 63 603 l 258 364 z "},"*":{"ha":532,"x_min":0,"x_max":0,"o":"m 210 610 l 210 469 l 322 469 l 322 609 l 442 540 l 498 636 l 377 706 l 498 776 l 442 872 l 322 801 l 322 942 l 210 942 l 210 802 l 90 872 l 34 775 l 155 706 l 34 635 l 90 540 z "},"†":{"ha":599,"x_min":0,"x_max":0,"o":"m 210 573 l 222 -101 l 377 -101 l 388 573 l 541 573 l 541 713 l 389 713 l 389 948 l 210 948 l 210 713 l 58 713 l 58 573 z "},"‡":{"ha":599,"x_min":0,"x_max":0,"o":"m 215 273 l 222 -101 l 377 -101 l 383 273 l 541 273 l 541 413 l 385 413 l 388 573 l 541 573 l 541 713 l 389 713 l 389 948 l 210 948 l 210 713 l 58 713 l 58 573 l 210 573 l 213 413 l 58 413 l 58 273 z "},".":{"ha":340,"x_min":0,"x_max":0,"o":"m 69 196 l 69 0 l 271 0 l 271 196 z "},",":{"ha":340,"x_min":0,"x_max":0,"o":"m 153 -233 l 272 -22 l 272 154 l 69 154 l 69 -17 l 136 -17 l 69 -197 z "},":":{"ha":340,"x_min":0,"x_max":0,"o":"m 69 196 l 69 0 l 271 0 l 271 196 z m 69 478 l 271 478 l 271 674 l 69 674 z "},";":{"ha":369,"x_min":0,"x_max":0,"o":"m 170 -233 l 289 -22 l 289 154 l 87 154 l 87 -17 l 153 -17 l 86 -197 z m 87 478 l 289 478 l 289 674 l 87 674 z "},"…":{"ha":952,"x_min":0,"x_max":0,"o":"m 681 196 l 681 0 l 883 0 l 883 196 z m 69 0 l 271 0 l 271 196 l 69 196 z m 375 0 l 577 0 l 577 196 l 375 196 z "},"!":{"ha":481,"x_min":0,"x_max":0,"o":"m 144 631 l 159 295 l 322 295 l 337 628 l 337 897 l 144 897 z m 145 0 l 333 0 l 333 182 l 145 182 z "},"¡":{"ha":481,"x_min":0,"x_max":0,"o":"m 337 142 l 322 477 l 159 477 l 144 144 l 144 -124 l 337 -124 z m 147 590 l 335 590 l 335 772 l 147 772 z "},"?":{"ha":810,"x_min":0,"x_max":0,"o":"m 257 346 l 257 294 l 444 294 l 444 312 b 559 413 444 363 497 386 b 766 672 651 453 766 503 b 420 935 766 852 630 935 b 28 838 265 935 115 879 l 85 678 b 422 773 203 735 315 773 b 569 667 505 773 569 744 b 433 538 569 601 503 570 b 257 346 349 499 257 456 z m 257 0 l 445 0 l 445 182 l 257 182 z "},"¿":{"ha":810,"x_min":0,"x_max":0,"o":"m 553 426 l 553 478 l 365 478 l 365 460 b 251 359 365 409 313 386 b 44 101 158 319 44 269 b 390 -162 44 -80 180 -162 b 781 -65 545 -162 694 -107 l 724 94 b 388 -1 606 37 494 -1 b 240 105 305 -1 240 28 b 377 235 240 172 306 202 b 553 426 461 274 553 316 z m 365 590 l 553 590 l 553 772 l 365 772 z "},"/":{"ha":625,"x_min":0,"x_max":0,"o":"m 17 -203 l 190 -255 l 608 1017 l 435 1072 z "},"\\":{"ha":624,"x_min":0,"x_max":0,"o":"m 17 1017 l 434 -255 l 607 -203 l 190 1072 z "},"⁄":{"ha":522,"x_min":0,"x_max":0,"o":"m -167 13 l -47 -74 l 688 822 l 572 911 z "},"|":{"ha":456,"x_min":0,"x_max":0,"o":"m 138 1083 l 138 -287 l 317 -287 l 317 1083 z "},"¦":{"ha":456,"x_min":0,"x_max":0,"o":"m 138 364 l 138 -287 l 317 -287 l 317 364 z m 138 499 l 317 499 l 317 1083 l 138 1083 z "},"@":{"ha":1435,"x_min":0,"x_max":0,"o":"m 98 362 b 697 -187 98 -54 378 -187 b 1090 -140 842 -187 974 -165 l 1062 -12 b 703 -56 985 -28 852 -56 b 253 364 427 -56 253 65 b 739 799 253 653 458 799 b 1197 407 998 799 1197 678 b 1104 197 1197 233 1147 197 b 1044 244 1074 197 1044 207 l 1044 428 b 742 667 1044 606 913 667 b 456 605 638 667 533 638 l 495 492 b 742 544 545 512 651 544 b 890 456 826 544 876 515 b 772 461 848 459 809 461 b 412 251 551 461 412 394 b 651 70 412 106 540 70 b 909 147 752 70 840 102 b 1084 69 939 89 1008 69 b 1349 409 1179 69 1349 120 b 742 930 1349 782 1075 930 b 98 362 423 930 98 765 z m 571 256 b 803 347 571 301 630 347 b 894 344 830 347 860 347 l 894 271 b 669 196 822 223 738 196 b 571 256 602 196 571 221 z "},"&":{"ha":1183,"x_min":0,"x_max":0,"o":"m 488 -26 b 845 85 622 -26 749 6 b 1017 -26 898 50 956 13 l 1110 115 b 951 219 1053 152 1001 188 b 1013 525 1002 321 1013 428 l 823 525 b 792 325 823 442 811 376 b 407 693 513 510 407 592 b 536 772 407 739 448 772 b 724 738 594 772 676 750 l 778 889 b 523 934 710 912 606 934 b 210 689 381 934 210 883 b 299 485 210 616 236 554 b 115 224 177 419 115 335 b 488 -26 115 30 294 -26 z m 313 239 b 417 378 313 299 356 344 b 689 187 487 324 576 262 b 499 136 626 144 553 136 b 313 239 393 136 313 164 z "},"§":{"ha":939,"x_min":0,"x_max":0,"o":"m 136 3 l 87 -149 b 451 -214 163 -183 310 -214 b 856 43 702 -214 856 -143 b 763 223 856 134 819 189 b 872 396 832 262 872 316 b 304 707 872 726 304 538 b 501 789 304 744 341 789 b 785 748 566 789 671 776 l 828 891 b 494 935 749 911 638 935 b 123 690 276 935 123 867 b 229 510 123 596 166 542 b 107 327 160 472 107 416 b 667 35 107 10 667 219 b 454 -60 667 -31 588 -60 b 136 3 358 -60 253 -42 z m 288 353 b 401 466 288 401 322 439 b 697 375 548 450 697 459 b 602 272 697 328 641 288 b 288 353 451 292 288 274 z "},"¶":{"ha":1053,"x_min":0,"x_max":0,"o":"m 381 309 l 442 309 l 442 -197 l 618 -197 l 618 934 l 388 934 b 51 619 169 934 51 819 b 381 309 51 406 183 309 z m 740 -197 l 915 -197 l 915 934 l 740 934 z "},"·":{"ha":340,"x_min":0,"x_max":0,"o":"m 69 585 l 69 390 l 271 390 l 271 585 z "},"•":{"ha":396,"x_min":0,"x_max":0,"o":"m 69 547 l 69 297 l 327 297 l 327 547 z "},"+":{"ha":917,"x_min":0,"x_max":0,"o":"m 364 332 l 364 51 l 553 51 l 553 332 l 860 332 l 860 494 l 553 494 l 553 747 l 364 747 l 364 494 l 58 494 l 58 332 z "},"−":{"ha":848,"x_min":0,"x_max":0,"o":"m 58 488 l 58 335 l 790 335 l 790 488 z "},"±":{"ha":848,"x_min":0,"x_max":0,"o":"m 329 478 l 329 249 l 519 249 l 519 478 l 790 478 l 790 640 l 519 640 l 519 844 l 329 844 l 329 640 l 58 640 l 58 478 z m 58 3 l 790 3 l 790 166 l 58 166 z "},"÷":{"ha":848,"x_min":0,"x_max":0,"o":"m 329 238 l 329 56 l 517 56 l 517 238 z m 58 335 l 790 335 l 790 488 l 58 488 z m 329 585 l 517 585 l 517 767 l 329 767 z "},"×":{"ha":761,"x_min":0,"x_max":0,"o":"m 58 199 l 182 78 l 379 278 l 580 79 l 703 203 l 503 395 l 689 574 l 569 694 l 388 506 l 195 692 l 70 567 l 260 392 z "},"=":{"ha":917,"x_min":0,"x_max":0,"o":"m 58 342 l 58 180 l 860 180 l 860 342 z m 58 483 l 860 483 l 860 646 l 58 646 z "},"<":{"ha":970,"x_min":0,"x_max":0,"o":"m 98 309 l 811 -26 l 884 133 l 278 392 l 877 640 l 813 797 l 98 483 z "},">":{"ha":970,"x_min":0,"x_max":0,"o":"m 169 -24 l 884 291 l 884 465 l 171 799 l 98 641 l 704 381 l 105 133 z "},"≤":{"ha":924,"x_min":0,"x_max":0,"o":"m 98 451 l 790 211 l 841 365 l 290 538 l 828 697 l 790 846 l 98 625 z m 98 -1 l 831 -1 l 831 162 l 98 162 z "},"≥":{"ha":925,"x_min":0,"x_max":0,"o":"m 98 363 l 137 211 l 839 432 l 839 606 l 154 846 l 103 693 l 644 521 z m 106 -1 l 839 -1 l 839 162 l 106 162 z "},"≈":{"ha":938,"x_min":0,"x_max":0,"o":"m 305 217 b 644 146 446 217 529 146 b 880 226 744 146 801 174 l 828 349 b 653 303 777 318 726 303 b 313 375 538 303 454 375 b 58 295 202 375 101 319 l 110 168 b 305 217 161 193 230 217 z m 58 592 l 110 456 b 305 507 161 482 230 507 b 644 435 446 507 529 435 b 880 515 744 435 801 464 l 828 646 b 653 601 777 616 726 601 b 313 672 538 601 454 672 b 58 592 202 672 101 617 z "},"≠":{"ha":917,"x_min":0,"x_max":0,"o":"m 256 80 l 408 33 l 458 180 l 860 180 l 860 342 l 512 342 l 559 483 l 860 483 l 860 646 l 613 646 l 647 745 l 493 794 l 444 646 l 58 646 l 58 483 l 390 483 l 343 342 l 58 342 l 58 180 l 289 180 z "},"¬":{"ha":885,"x_min":0,"x_max":0,"o":"m 665 287 l 665 137 l 828 137 l 828 431 l 58 431 l 58 287 z "},"←":{"ha":1070,"x_min":0,"x_max":0,"o":"m 104 388 l 375 109 l 485 221 l 334 376 l 1001 376 l 1001 535 l 335 535 l 485 688 l 374 801 l 104 523 z "},"↑":{"ha":866,"x_min":0,"x_max":0,"o":"m 354 667 l 354 0 l 513 0 l 513 666 l 665 515 l 779 627 l 501 897 l 365 897 l 87 626 l 199 515 z "},"→":{"ha":1070,"x_min":0,"x_max":0,"o":"m 585 219 l 695 108 l 966 386 l 966 522 l 697 800 l 585 686 l 735 534 l 69 534 l 69 375 l 736 375 z "},"↓":{"ha":866,"x_min":0,"x_max":0,"o":"m 87 271 l 365 0 l 501 0 l 779 269 l 665 381 l 513 231 l 513 897 l 354 897 l 354 230 l 199 381 z "},"∂":{"ha":1136,"x_min":0,"x_max":0,"o":"m 534 -40 b 1040 422 833 -40 1040 97 b 551 935 1040 738 874 935 b 141 809 360 935 217 861 l 214 667 b 545 776 333 744 442 776 b 856 496 753 776 836 621 b 528 611 787 563 680 611 b 124 281 364 611 124 533 b 534 -40 124 29 310 -40 z m 316 284 b 547 453 316 392 409 453 b 848 326 660 453 767 406 b 544 117 813 173 680 117 b 316 284 385 117 316 169 z "},"∆":{"ha":1277,"x_min":0,"x_max":0,"o":"m 535 982 l 43 0 l 1234 0 l 738 982 z m 313 163 l 635 798 l 958 163 z "},"∏":{"ha":1085,"x_min":0,"x_max":0,"o":"m 138 934 l 138 -187 l 321 -187 l 321 788 l 765 788 l 765 -187 l 947 -187 l 947 934 z "},"∑":{"ha":1032,"x_min":0,"x_max":0,"o":"m 101 -20 l 101 -175 l 974 -175 l 974 -24 l 335 -24 l 740 375 l 338 783 l 967 783 l 967 934 l 101 934 l 101 772 l 503 369 z "},"µ":{"ha":1049,"x_min":0,"x_max":0,"o":"m 126 674 l 126 -274 l 313 -274 l 313 22 b 442 -26 329 -6 377 -26 b 748 81 561 -26 662 13 l 769 0 l 922 0 l 922 674 l 729 674 l 729 229 b 479 131 675 181 592 131 b 319 338 372 131 319 169 l 319 674 z "},"∕":{"ha":569,"x_min":0,"x_max":0,"o":"m 17 -203 l 190 -255 l 608 1017 l 435 1072 z "},"√":{"ha":953,"x_min":0,"x_max":0,"o":"m 178 454 l 373 0 l 585 0 l 1010 904 l 861 978 l 486 167 l 308 598 l 33 598 l 33 454 z "},"∞":{"ha":1327,"x_min":0,"x_max":0,"o":"m 86 334 b 367 67 86 168 194 67 b 647 211 476 67 557 110 l 653 218 l 660 210 b 960 67 741 101 837 67 b 1241 334 1132 67 1241 168 b 960 611 1241 515 1123 611 b 690 474 835 611 769 569 l 664 442 l 629 483 b 367 611 549 575 478 611 b 86 334 215 611 86 515 z m 251 338 b 367 472 251 415 292 472 b 465 431 401 472 433 467 l 562 322 l 509 264 b 374 206 478 229 434 206 b 251 338 294 206 251 261 z m 756 335 l 813 406 b 953 472 862 467 913 472 b 1076 338 1035 472 1076 415 b 953 206 1076 261 1033 206 b 817 265 894 206 848 228 z "},"∫":{"ha":906,"x_min":0,"x_max":0,"o":"m 31 -140 l -3 -290 b 239 -328 -3 -290 138 -328 b 546 -80 428 -328 546 -278 l 546 781 b 677 883 546 865 583 883 b 874 849 739 883 789 871 l 908 999 b 667 1038 908 999 751 1038 b 360 789 478 1038 360 988 l 360 -72 b 228 -174 360 -156 322 -174 b 31 -140 167 -174 117 -162 z "},"$":{"ha":1063,"x_min":0,"x_max":0,"o":"m 400 32 l 400 -135 l 507 -135 l 507 25 l 551 25 b 606 28 572 26 592 26 l 606 -135 l 713 -135 l 713 41 b 982 297 878 73 982 153 b 713 523 982 427 890 489 l 713 688 b 868 652 766 678 819 665 l 926 797 b 713 846 864 816 789 834 l 713 1017 l 606 1017 l 606 858 b 551 860 588 859 569 860 b 507 859 536 860 522 860 l 507 1017 l 400 1017 l 400 849 b 130 622 246 824 130 758 b 400 410 130 488 237 437 l 400 192 b 152 270 279 213 185 256 l 86 124 b 400 32 161 83 273 47 z m 310 630 b 400 697 310 665 340 686 l 400 570 b 310 630 340 585 310 605 z m 507 181 l 507 397 l 527 394 b 606 385 556 392 582 389 l 606 182 b 535 180 584 181 560 180 b 507 181 526 180 517 180 z m 507 551 l 507 706 b 542 707 518 707 530 707 b 606 703 563 707 584 706 l 606 540 l 553 546 b 507 551 537 547 522 549 z m 713 199 l 713 366 b 808 289 779 349 808 326 b 713 199 808 247 777 217 z "},"¢":{"ha":915,"x_min":0,"x_max":0,"o":"m 353 46 l 353 -100 l 467 -100 l 467 34 l 506 34 b 547 37 522 35 538 35 l 547 -100 l 661 -100 l 661 54 b 857 122 727 69 793 91 l 804 242 b 661 195 755 224 710 207 l 661 532 b 797 499 708 523 754 512 l 844 629 b 661 676 785 649 726 666 l 661 829 l 547 829 l 547 686 b 520 687 538 687 529 687 b 467 685 502 687 485 686 l 467 829 l 353 829 l 353 670 b 81 356 179 631 81 525 b 353 46 81 180 188 78 z m 245 358 b 353 525 245 432 274 493 l 353 197 b 245 358 278 224 245 278 z m 467 177 l 467 547 b 499 548 477 548 488 548 b 547 547 515 548 531 547 l 547 178 b 506 176 533 176 519 176 b 467 177 492 176 479 176 z "},"£":{"ha":933,"x_min":0,"x_max":0,"o":"m 119 148 l 119 0 l 878 0 l 878 158 l 310 158 l 347 367 l 809 367 l 809 503 l 371 503 l 397 646 b 583 782 417 759 504 782 b 815 731 647 782 746 762 l 878 861 b 578 935 811 897 708 935 b 218 682 419 935 257 890 l 185 503 l 69 503 l 69 367 l 160 367 z "},"¤":{"ha":957,"x_min":0,"x_max":0,"o":"m 631 167 l 745 60 l 859 174 l 756 274 b 794 418 781 315 794 364 b 739 584 794 483 774 540 l 833 678 l 722 790 l 609 676 b 481 697 570 690 527 697 b 345 673 433 697 386 689 l 235 785 l 118 669 l 213 572 b 168 418 185 529 168 478 b 204 275 168 364 181 315 l 98 174 l 215 62 l 321 171 b 481 138 367 149 421 138 b 631 167 537 138 588 148 z m 334 418 b 481 565 334 497 385 565 b 628 418 578 565 628 497 b 481 272 628 337 578 272 b 334 418 386 272 334 337 z "},"¥":{"ha":1168,"x_min":0,"x_max":0,"o":"m 483 172 l 483 0 l 679 0 l 679 172 l 1006 172 l 1006 310 l 712 310 l 788 407 l 1006 407 l 1006 545 l 897 545 l 1117 824 l 981 928 l 588 432 l 175 928 l 34 813 l 253 545 l 139 545 l 139 407 l 367 407 l 447 310 l 139 310 l 139 172 z "},"€":{"ha":1134,"x_min":0,"x_max":0,"o":"m 156 272 b 639 -40 213 72 381 -40 b 1065 78 806 -40 944 9 l 989 226 b 649 126 879 167 777 126 b 376 272 518 126 424 178 l 713 272 l 713 397 l 341 397 b 339 443 340 412 339 427 b 342 498 339 462 340 481 l 713 498 l 713 622 l 376 622 b 652 769 423 717 515 769 b 953 692 731 769 835 744 l 1023 842 b 647 935 928 888 804 935 b 162 622 428 935 232 835 l 51 622 l 51 498 l 138 498 b 135 440 135 479 135 460 b 136 397 135 426 135 411 l 51 397 l 51 272 z "},"ƒ":{"ha":874,"x_min":0,"x_max":0,"o":"m -41 -105 l -86 -248 b 138 -290 -86 -248 20 -290 b 472 -23 359 -290 458 -188 l 494 336 l 801 336 l 801 478 l 508 478 l 519 667 b 651 786 525 756 572 786 b 828 753 688 786 756 775 l 876 894 b 626 935 807 915 728 935 b 336 689 467 935 350 887 l 321 478 l 124 478 l 124 336 l 308 336 l 291 6 b 142 -140 280 -98 224 -140 b -41 -105 87 -140 26 -127 z "},"₱":{"ha":1167,"x_min":0,"x_max":0,"o":"m 192 382 l 192 0 l 375 0 l 375 183 l 621 183 b 1017 382 845 183 971 245 l 1150 382 l 1150 499 l 1038 499 b 1038 526 1038 508 1038 517 b 1037 572 1038 542 1038 557 l 1150 572 l 1150 690 l 1014 690 b 652 897 964 833 838 897 l 192 897 l 192 690 l 74 690 l 74 572 l 192 572 l 192 499 l 74 499 l 74 382 z m 375 315 l 375 382 l 835 382 b 622 315 800 337 734 315 z m 375 499 l 375 572 l 870 572 b 872 527 872 558 872 543 b 872 499 872 518 872 508 z m 375 690 l 375 767 l 649 767 b 828 690 727 767 790 742 z "},"^":{"ha":731,"x_min":0,"x_max":0,"o":"m 43 590 l 179 492 l 363 769 l 544 499 l 688 596 l 471 897 l 260 897 z "},"~":{"ha":848,"x_min":0,"x_max":0,"o":"m 540 231 b 790 372 629 231 708 273 l 700 468 b 569 390 674 440 622 390 b 447 445 522 390 490 419 b 290 490 409 468 363 490 b 58 378 205 490 115 433 l 133 266 b 276 327 165 291 206 327 b 394 283 320 327 356 305 b 540 231 435 258 480 231 z "},"´":{"ha":551,"x_min":0,"x_max":0,"o":"m 86 1102 l 160 982 l 465 1138 l 388 1272 z "},"`":{"ha":551,"x_min":0,"x_max":0,"o":"m 86 1138 l 392 982 l 465 1102 l 163 1272 z "},"˝":{"ha":841,"x_min":0,"x_max":0,"o":"m 147 1076 l 260 980 l 486 1201 l 366 1313 z m 463 1094 l 565 987 l 815 1184 l 708 1306 z "},"ˆ":{"ha":667,"x_min":0,"x_max":0,"o":"m 86 1085 l 191 983 l 333 1113 l 476 983 l 581 1087 l 398 1232 l 270 1232 z "},"ˇ":{"ha":667,"x_min":0,"x_max":0,"o":"m 86 1163 l 269 1017 l 397 1017 l 581 1164 l 476 1267 l 335 1137 l 192 1267 z "},"˘":{"ha":682,"x_min":0,"x_max":0,"o":"m 238 1217 l 86 1194 b 341 981 97 1061 192 981 b 596 1194 490 981 582 1062 l 444 1217 b 341 1112 431 1122 377 1112 b 238 1217 305 1112 251 1122 z "},"˜":{"ha":753,"x_min":0,"x_max":0,"o":"m 360 1029 b 484 1001 390 1014 429 1001 b 674 1184 558 1001 638 1030 l 550 1222 b 486 1143 530 1160 512 1143 b 388 1175 447 1143 417 1158 b 267 1221 351 1197 317 1221 b 79 1048 178 1221 113 1174 l 197 999 b 268 1076 219 1054 235 1076 b 360 1029 294 1076 319 1051 z "},"¯":{"ha":665,"x_min":0,"x_max":0,"o":"m 86 1169 l 86 1028 l 579 1028 l 579 1169 z "},"¨":{"ha":695,"x_min":0,"x_max":0,"o":"m 86 1188 l 86 1006 l 285 1006 l 285 1188 z m 410 1006 l 609 1006 l 609 1188 l 410 1188 z "},"˙":{"ha":371,"x_min":0,"x_max":0,"o":"m 86 1188 l 86 1006 l 285 1006 l 285 1188 z "},"˚":{"ha":584,"x_min":0,"x_max":0,"o":"m 86 1131 b 292 956 86 1031 161 956 b 498 1131 416 956 498 1031 b 292 1304 498 1231 414 1304 b 86 1131 169 1304 86 1231 z m 219 1131 b 292 1198 219 1171 246 1198 b 364 1131 338 1198 364 1171 b 292 1063 364 1090 335 1063 b 219 1131 246 1063 219 1090 z "},"¸":{"ha":578,"x_min":0,"x_max":0,"o":"m 133 -135 l 97 -255 b 285 -290 133 -268 206 -290 b 492 -131 409 -290 492 -234 b 157 102 492 -25 397 56 l 109 5 b 331 -121 289 -50 331 -91 b 265 -162 331 -151 301 -162 b 133 -135 234 -162 186 -152 z "},"˛":{"ha":662,"x_min":0,"x_max":0,"o":"m 118 -131 b 310 -290 118 -234 195 -290 b 513 -255 389 -290 481 -266 l 476 -133 b 331 -160 418 -150 368 -160 b 281 -121 302 -160 281 -151 b 522 19 281 -88 325 -42 l 383 112 b 118 -131 229 48 118 -22 z "},"©":{"ha":1215,"x_min":0,"x_max":0,"o":"m 608 -35 b 1128 444 925 -35 1128 165 b 608 922 1128 722 919 922 b 87 444 296 922 87 722 b 608 -35 87 165 288 -35 z m 208 444 b 608 810 208 655 358 810 b 1007 444 858 810 1007 655 b 608 77 1007 232 858 77 b 208 444 358 77 208 232 z m 328 443 b 599 190 328 275 436 190 b 851 269 678 190 778 213 l 797 363 b 608 300 740 324 680 300 b 466 440 527 300 466 340 b 616 590 466 554 534 590 b 791 541 667 590 724 579 l 833 640 b 610 699 772 678 698 699 b 328 443 451 699 328 609 z "},"®":{"ha":719,"x_min":0,"x_max":0,"o":"m 378 559 l 409 484 l 492 511 l 463 577 b 501 652 488 594 501 620 b 384 747 501 713 460 747 l 231 747 l 231 497 l 317 497 l 317 559 z m 35 619 b 358 316 35 448 156 316 b 684 619 560 316 684 448 b 358 921 684 791 557 921 b 35 619 160 921 35 791 z m 127 619 b 358 839 127 735 192 839 b 588 619 524 839 588 735 b 358 401 588 503 524 401 b 127 619 193 401 127 503 z m 317 624 l 317 682 l 381 682 b 417 653 404 682 417 673 b 381 624 417 633 408 624 z "},"™":{"ha":1449,"x_min":0,"x_max":0,"o":"m 649 897 l 649 438 l 778 438 l 778 806 l 912 508 l 1100 508 l 1222 809 l 1222 438 l 1351 438 l 1351 897 l 1127 897 l 1010 600 l 885 897 z m 28 787 l 230 787 l 230 438 l 363 438 l 363 787 l 542 787 l 542 896 l 28 896 z "},"°":{"ha":655,"x_min":0,"x_max":0,"o":"m 52 674 b 327 426 52 525 159 426 b 603 674 495 426 603 525 b 327 921 603 822 492 921 b 52 674 163 921 52 822 z m 201 674 b 327 801 201 743 244 801 b 453 674 408 801 453 743 b 327 547 453 605 408 547 b 201 674 244 547 201 605 z "},"◊":{"ha":1006,"x_min":0,"x_max":0,"o":"m 98 438 l 398 0 l 608 0 l 908 438 l 608 897 l 397 897 z m 306 438 l 501 757 l 703 438 l 505 134 z "},"₹":{"ha":1059,"x_min":0,"x_max":0,"o":"m 553 236 l 683 -40 l 848 42 l 727 296 b 856 491 795 340 841 404 l 988 491 l 988 636 l 849 636 b 768 751 835 680 809 721 l 988 751 l 988 897 l 145 897 l 145 751 l 439 751 b 660 636 560 751 633 710 l 145 636 l 145 491 l 664 491 b 439 376 640 422 573 376 l 145 376 l 145 229 l 455 229 b 553 236 490 229 522 231 z "},"ﬀ":{"ha":1326,"x_min":0,"x_max":0,"o":"m 201 0 l 394 0 l 394 521 l 776 521 l 776 0 l 969 0 l 969 521 l 1306 521 l 1306 674 l 969 674 l 969 747 b 1104 859 969 823 1011 859 b 1309 822 1169 859 1235 844 l 1351 973 b 1081 1018 1283 994 1175 1018 b 776 761 924 1018 776 969 l 776 674 l 394 674 l 394 733 b 530 845 394 809 437 845 b 700 822 583 845 640 832 l 735 973 b 507 1004 680 985 586 1004 b 201 747 350 1004 201 956 l 201 674 l 63 674 l 63 521 l 201 521 z "},"ﬁ":{"ha":1068,"x_min":0,"x_max":0,"o":"m 201 0 l 394 0 l 394 521 l 760 521 l 760 0 l 953 0 l 953 674 l 394 674 l 394 747 b 561 859 394 823 445 859 b 797 822 636 859 710 844 l 840 973 b 540 1018 767 994 644 1018 b 201 761 364 1018 201 969 l 201 674 l 63 674 l 63 521 l 201 521 z "},"ﬂ":{"ha":1097,"x_min":0,"x_max":0,"o":"m 201 521 l 201 0 l 394 0 l 394 521 l 669 521 l 669 674 l 394 674 l 394 747 b 530 859 394 823 437 859 b 672 826 574 859 623 844 l 715 977 b 507 1018 665 994 578 1018 b 201 761 350 1018 201 969 l 201 674 l 63 674 l 63 521 z m 789 0 l 982 0 l 982 982 l 789 982 z "},"ﬃ":{"ha":1642,"x_min":0,"x_max":0,"o":"m 201 0 l 394 0 l 394 521 l 776 521 l 776 0 l 969 0 l 969 521 l 1334 521 l 1334 0 l 1527 0 l 1527 674 l 969 674 l 969 747 b 1135 859 969 823 1019 859 b 1372 822 1210 859 1284 844 l 1414 973 b 1115 1018 1341 994 1219 1018 b 776 761 938 1018 776 969 l 776 674 l 394 674 l 394 733 b 530 845 394 809 437 845 b 700 822 583 845 640 832 l 735 973 b 507 1004 680 985 586 1004 b 201 747 350 1004 201 956 l 201 674 l 63 674 l 63 521 l 201 521 z "},"ﬄ":{"ha":1670,"x_min":0,"x_max":0,"o":"m 201 0 l 394 0 l 394 521 l 774 521 l 774 0 l 967 0 l 967 521 l 1242 521 l 1242 674 l 967 674 l 967 747 b 1103 859 967 823 1010 859 b 1245 826 1147 859 1196 844 l 1288 977 b 1080 1018 1236 995 1151 1018 b 774 761 923 1018 774 969 l 774 674 l 394 674 l 394 733 b 530 845 394 809 437 845 b 700 822 583 845 640 832 l 735 973 b 507 1004 680 985 586 1004 b 201 747 350 1004 201 956 l 201 674 l 63 674 l 63 521 l 201 521 z m 1362 0 l 1555 0 l 1555 982 l 1362 982 z "},"₀":{"ha":764,"x_min":0,"x_max":0,"o":"m 79 35 b 380 -250 79 -160 215 -250 b 685 38 545 -250 685 -165 b 389 329 685 240 547 329 b 79 35 233 329 79 249 z m 243 37 b 385 203 243 142 303 203 b 521 37 464 203 521 142 b 385 -125 521 -65 464 -125 b 243 37 303 -125 243 -65 z "},"₁":{"ha":764,"x_min":0,"x_max":0,"o":"m 131 -93 l 131 -229 l 689 -229 l 689 -93 l 510 -93 l 510 308 l 401 308 l 149 248 l 172 119 l 352 155 l 352 -93 z "},"₂":{"ha":764,"x_min":0,"x_max":0,"o":"m 109 -126 l 109 -229 l 678 -229 l 678 -94 l 272 -94 l 272 -91 b 380 -34 272 -74 299 -60 l 477 -2 b 664 165 619 44 664 83 b 420 329 664 274 590 329 b 126 265 309 329 201 298 l 167 146 b 420 198 231 173 313 198 b 498 165 482 198 498 181 b 421 110 498 145 484 132 l 303 70 b 109 -126 167 24 109 -31 z "},"₃":{"ha":764,"x_min":0,"x_max":0,"o":"m 356 -250 b 672 -63 544 -250 672 -209 b 558 78 672 -10 638 58 b 645 180 607 90 645 128 b 384 329 645 294 524 329 b 115 278 287 329 174 299 l 147 158 b 378 204 219 185 310 204 b 461 158 438 204 461 184 b 396 108 461 127 447 108 l 238 108 l 238 -12 l 408 -12 b 489 -63 461 -12 489 -27 b 367 -124 489 -103 455 -124 b 131 -88 272 -124 176 -103 l 98 -213 b 356 -250 176 -238 276 -250 z "},"₄":{"ha":764,"x_min":0,"x_max":0,"o":"m 450 -124 l 450 -229 l 595 -229 l 595 -124 l 694 -124 l 694 -1 l 595 -1 l 595 308 l 403 308 l 75 19 l 75 -124 z m 234 -1 l 450 185 l 450 -1 z "},"₅":{"ha":764,"x_min":0,"x_max":0,"o":"m 380 -250 b 675 -56 569 -250 675 -188 b 426 116 675 68 572 116 b 282 101 372 116 330 110 l 288 183 l 604 183 l 604 308 l 169 308 l 146 34 l 212 -28 b 406 -3 269 -14 319 -3 b 508 -61 490 -3 508 -29 b 390 -118 508 -92 483 -118 b 151 -74 306 -118 203 -93 l 114 -206 b 380 -250 158 -222 260 -250 z "},"₆":{"ha":764,"x_min":0,"x_max":0,"o":"m 399 -250 b 677 -54 574 -250 677 -165 b 451 124 677 78 576 124 b 261 83 372 124 304 104 b 438 201 272 156 358 201 b 610 166 501 201 553 188 l 658 286 b 438 329 608 308 528 329 b 105 24 221 329 105 213 b 399 -250 105 -164 217 -250 z m 262 -27 b 432 8 303 -10 373 8 b 528 -54 490 8 528 -13 b 401 -120 528 -94 478 -120 b 262 -27 335 -120 276 -95 z "},"₇":{"ha":764,"x_min":0,"x_max":0,"o":"m 204 -150 l 326 -250 l 663 182 l 663 308 l 127 308 l 127 175 l 466 175 z "},"₈":{"ha":764,"x_min":0,"x_max":0,"o":"m 104 -85 b 392 -246 104 -201 232 -246 b 681 -87 551 -246 681 -192 b 542 54 681 -8 635 38 b 649 176 599 69 649 107 b 392 329 649 268 551 329 b 135 171 251 329 135 274 b 248 51 135 104 185 74 b 104 -85 158 33 104 -7 z m 267 -73 b 392 -2 267 -28 317 -2 b 518 -73 473 -2 518 -28 b 392 -131 518 -103 477 -131 b 267 -73 309 -131 267 -105 z m 298 163 b 392 218 298 198 332 218 b 487 163 454 218 487 198 b 392 103 487 127 451 103 b 298 163 335 103 298 127 z "},"₉":{"ha":764,"x_min":0,"x_max":0,"o":"m 349 -250 b 685 55 588 -250 685 -140 b 389 329 685 243 563 329 b 113 128 215 329 113 250 b 330 -50 113 -12 228 -50 b 529 -6 432 -50 501 -25 b 363 -127 528 -86 463 -127 b 160 -97 278 -127 225 -115 l 132 -221 b 349 -250 175 -235 271 -250 z m 263 130 b 391 210 263 174 303 210 b 528 99 458 210 515 176 b 370 63 491 83 425 63 b 263 130 306 63 263 86 z "},"₍":{"ha":382,"x_min":0,"x_max":0,"o":"m 85 43 b 224 -300 85 -112 158 -225 l 338 -216 b 235 43 308 -176 235 -84 b 336 291 235 158 283 222 l 224 374 b 85 43 155 299 85 206 z "},"₎":{"ha":382,"x_min":0,"x_max":0,"o":"m 73 -216 l 187 -300 b 326 43 253 -225 326 -112 b 187 374 326 206 256 299 l 74 291 b 175 43 128 222 175 158 b 73 -216 175 -84 103 -176 z "},"¹":{"ha":764,"x_min":0,"x_max":0,"o":"m 131 619 l 131 483 l 689 483 l 689 619 l 510 619 l 510 1020 l 401 1020 l 149 960 l 172 831 l 352 867 l 352 619 z "},"²":{"ha":764,"x_min":0,"x_max":0,"o":"m 109 585 l 109 483 l 678 483 l 678 617 l 272 617 l 272 621 b 380 678 272 638 299 651 l 477 710 b 664 877 619 756 664 795 b 420 1041 664 985 590 1041 b 126 976 309 1041 201 1010 l 167 858 b 420 910 231 885 313 910 b 498 877 482 910 498 892 b 421 822 498 857 484 844 l 303 782 b 109 585 167 735 109 681 z "},"³":{"ha":764,"x_min":0,"x_max":0,"o":"m 356 462 b 672 649 544 462 672 503 b 558 790 672 702 638 770 b 645 892 607 801 645 840 b 384 1041 645 1006 524 1041 b 115 990 287 1041 174 1011 l 147 870 b 378 916 219 897 310 916 b 461 870 438 916 461 896 b 396 819 461 839 447 819 l 238 819 l 238 699 l 408 699 b 489 649 461 699 489 685 b 367 588 489 608 455 588 b 131 624 272 588 176 608 l 98 499 b 356 462 176 474 276 462 z "},"⁰":{"ha":764,"x_min":0,"x_max":0,"o":"m 79 747 b 380 462 79 552 215 462 b 685 750 545 462 685 547 b 389 1041 685 951 547 1041 b 79 747 233 1041 79 961 z m 243 749 b 385 915 243 853 303 915 b 521 749 464 915 521 853 b 385 587 521 647 464 587 b 243 749 303 587 243 647 z "},"⁴":{"ha":764,"x_min":0,"x_max":0,"o":"m 450 588 l 450 483 l 595 483 l 595 588 l 694 588 l 694 710 l 595 710 l 595 1020 l 403 1020 l 75 731 l 75 588 z m 234 710 l 450 897 l 450 710 z "},"⁵":{"ha":764,"x_min":0,"x_max":0,"o":"m 380 462 b 675 656 569 462 675 524 b 426 828 675 780 572 828 b 282 813 372 828 330 822 l 288 894 l 604 894 l 604 1020 l 169 1020 l 146 746 l 212 683 b 406 708 269 698 319 708 b 508 651 490 708 508 683 b 390 594 508 620 483 594 b 151 638 306 594 203 619 l 114 506 b 380 462 158 490 260 462 z "},"⁶":{"ha":764,"x_min":0,"x_max":0,"o":"m 399 462 b 677 658 574 462 677 547 b 451 835 677 790 576 835 b 261 794 372 835 304 816 b 438 913 272 868 358 913 b 610 878 501 913 553 900 l 658 998 b 438 1041 608 1020 528 1041 b 105 736 221 1041 105 924 b 399 462 105 548 217 462 z m 262 685 b 432 720 303 701 373 720 b 528 658 490 720 528 699 b 401 592 528 618 478 592 b 262 685 335 592 276 617 z "},"⁷":{"ha":764,"x_min":0,"x_max":0,"o":"m 204 562 l 326 462 l 663 894 l 663 1020 l 127 1020 l 127 887 l 466 887 z "},"⁸":{"ha":764,"x_min":0,"x_max":0,"o":"m 104 626 b 392 466 104 511 232 466 b 681 625 551 466 681 520 b 542 766 681 704 635 750 b 649 888 599 781 649 819 b 392 1041 649 980 551 1041 b 135 883 251 1041 135 985 b 248 763 135 816 185 785 b 104 626 158 744 104 705 z m 267 639 b 392 710 267 684 317 710 b 518 639 473 710 518 683 b 392 581 518 608 477 581 b 267 639 309 581 267 607 z m 298 875 b 392 930 298 910 332 930 b 487 875 454 930 487 910 b 392 815 487 839 451 815 b 298 875 335 815 298 839 z "},"⁹":{"ha":764,"x_min":0,"x_max":0,"o":"m 349 462 b 685 767 588 462 685 572 b 389 1041 685 955 563 1041 b 113 840 215 1041 113 962 b 330 662 113 700 228 662 b 529 706 432 662 501 687 b 363 585 528 626 463 585 b 160 615 278 585 225 597 l 132 491 b 349 462 175 476 271 462 z m 263 842 b 391 922 263 885 303 922 b 528 811 458 922 515 888 b 370 774 491 794 425 774 b 263 842 306 774 263 798 z "},"⁽":{"ha":382,"x_min":0,"x_max":0,"o":"m 85 755 b 224 412 85 600 158 487 l 338 496 b 235 755 308 535 235 628 b 336 1003 235 869 283 934 l 224 1085 b 85 755 155 1010 85 917 z "},"⁾":{"ha":382,"x_min":0,"x_max":0,"o":"m 73 496 l 187 412 b 326 755 253 487 326 600 b 187 1085 326 917 256 1010 l 74 1003 b 175 755 128 934 175 869 b 73 496 175 628 103 535 z "},"⁺":{"ha":382,"x_min":0,"x_max":0,"o":"m 126 714 l 126 596 l 259 596 l 259 714 l 368 714 l 368 821 l 259 821 l 259 929 l 126 929 l 126 821 l 14 821 l 14 714 z "},"⁻":{"ha":382,"x_min":0,"x_max":0,"o":"m 14 833 l 14 694 l 368 694 l 368 833 z "},"⁼":{"ha":382,"x_min":0,"x_max":0,"o":"m 14 744 l 14 620 l 368 620 l 368 744 z m 14 801 l 368 801 l 368 925 l 14 925 z "},"ẞ":{"ha":2211,"x_min":0,"x_max":0,"o":"m 1262 209 l 1203 44 b 1630 -40 1294 2 1452 -40 b 2125 269 1956 -40 2125 51 b 1772 547 2125 489 1949 533 b 1413 654 1593 561 1413 547 b 1662 767 1413 726 1487 767 b 2014 710 1783 767 1883 751 l 2067 869 b 1662 933 1967 903 1810 933 b 1222 642 1463 933 1222 865 b 1591 372 1222 417 1408 383 b 1939 253 1767 361 1939 371 b 1635 128 1939 165 1842 128 b 1262 209 1491 128 1340 173 z m 98 44 b 524 -40 189 2 347 -40 b 1019 269 851 -40 1019 51 b 667 547 1019 489 844 533 b 308 654 488 561 308 547 b 556 767 308 726 381 767 b 908 710 678 767 777 751 l 961 869 b 556 933 861 903 704 933 b 116 642 358 933 116 865 b 485 372 116 417 303 383 b 833 253 661 361 833 371 b 529 128 833 165 737 128 b 156 209 385 128 235 173 z "}," ":{"ha":694,"x_min":0,"x_max":0,"o":""}," ":{"ha":451,"x_min":0,"x_max":0,"o":""}," ":{"ha":1389,"x_min":0,"x_max":0,"o":""}}}
